<?xml version="1.0" encoding="utf-8"?>
<svg viewBox="132.27 136.169 253.324 232.396" xmlns="http://www.w3.org/2000/svg" xmlns:bx="https://boxy-svg.com">
  <defs>
    <pattern id="pattern-0" x="0" y="0" width="25" height="25" patternUnits="userSpaceOnUse" viewBox="0 0 100 100">
      <rect x="0" y="0" width="50" height="100" style="fill: black;"/>
    </pattern>
  </defs>
  <g id="bigDumbWebDev" transform="matrix(1, 0, 0, 1, -76.167755, 57.647011)">
    <ellipse style="fill: rgb(95, 98, 60);" cx="292.847" cy="242.345" rx="37.74" ry="12.461" transform="matrix(0.990907, 0.134552, 0.407592, 1.064522, -81.550095, -61.441746)"/>
    <path id="hair" d="M 298.07 144.443 C 298.07 144.443 306.579 122.556 307.803 120.974 C 309.139 119.249 314.154 116.783 312.346 116.783 C 306.814 116.783 297.435 115.927 293.527 120.974 C 291.804 123.202 287.26 130.744 288.985 128.518 C 289.556 127.78 300.665 101.693 300.665 101.693 C 300.665 101.693 279.805 109.6 277.304 111.752 C 275.993 112.883 272.114 119.302 272.114 120.134 C 272.114 121.292 271.465 124.647 271.465 123.489 C 271.465 117.927 275.913 104.451 277.954 99.18 C 279.011 96.45 284.051 91.635 281.848 91.635 C 271.024 91.635 265.418 106.153 259.136 114.268 C 259.04 114.392 257.189 125.164 257.189 125.164 C 257.189 125.164 257.748 116.521 257.838 115.944 C 259.017 108.329 263.029 91.637 260.434 93.313 C 255.158 96.72 244.211 109.588 244.211 117.619 C 244.211 119.848 242.913 124.739 242.913 126.002 C 242.913 127.708 242.264 132.735 242.264 131.033 C 242.264 123.842 242.349 108.178 244.86 101.693 C 245.723 99.466 251.468 88.625 248.104 90.798 C 237.196 97.843 235.257 109.575 231.881 122.65 C 231.268 125.029 231.233 133.478 231.233 136.06 C 231.233 138.296 231.233 145.002 231.233 142.768 C 231.233 134.175 229.78 118.856 232.53 111.752 C 234.105 107.688 237.547 95.213 235.127 98.342 C 226.593 109.364 224.094 124.407 224.094 140.253 C 224.094 147.369 228.126 162.554 224.744 160.37" style="stroke: rgb(0, 0, 0);"/>
    <path id="body" d="M 600 380 A 54 54 0 1 1 600 272 L 600 326 Z" transform="matrix(0, 2.392844, -0.90743, 0, 559.55542, -1131.71106)" style="fill: rgb(95, 98, 60);" bx:shape="pie 600 326 0 54 180 360 1@f4435228"/>
    <ellipse id="ellipse-1" transform="matrix(-0.207033, 0.978334, -0.978334, -0.207032, 391.637115, 207.233032)" cx="47.471" cy="39.58" rx="11.394" ry="10.797" style="fill: rgb(208, 188, 142);"/>
    <ellipse id="face" transform="matrix(-0.525494, 0.850798, -0.850797, -0.525493, 478.179987, 103.321289)" cx="165.889" cy="149.226" rx="39.816" ry="40.706" style="fill: rgb(208, 188, 142);"/>
    <rect x="381.62" y="141.3" width="76.363" height="162.695" style="fill: rgb(183, 154, 66);"/>
    <g transform="matrix(1, 0, 0, 1, 0.050941, 1.983754)">
      <rect x="385.541" y="151.59" width="68.362" height="41.097" style=""/>
      <rect x="387.464" y="153.089" width="64.631" height="38.108" style="fill: rgb(183, 154, 66);"/>
      <g transform="matrix(0.219694, 0, 0, 0.219068, 327.013855, 126.184189)" style="">
        <rect x="382.166" y="149.175" width="74.729" height="46.181" style=""/>
        <rect x="387.464" y="153.089" width="64.631" height="38.108" style="fill: rgb(183, 154, 66);"/>
      </g>
      <path style="" transform="matrix(0.000354, -0.067796, 0.151638, 0.000793, 334.829346, 226.231308)" d="M 706.75 614.121 A 58.804 58.804 0 0 1 707.375 496.516 L 707.375 555.32 Z" bx:shape="pie 707.375 555.32 0 58.804 180.609 360 1@957ce3e8"/>
    </g>
    <g transform="matrix(1, 0, 0, 1, -0.119975, 54.016914)">
      <rect x="385.541" y="151.59" width="68.362" height="41.097" style=""/>
      <rect x="387.464" y="153.089" width="64.631" height="38.108" style="fill: rgb(183, 154, 66);"/>
      <g transform="matrix(0.219694, 0, 0, 0.219068, 327.013855, 126.184189)" style="">
        <rect x="382.166" y="149.175" width="74.729" height="46.181" style=""/>
        <rect x="387.464" y="153.089" width="64.631" height="38.108" style="fill: rgb(183, 154, 66);"/>
      </g>
      <path style="" transform="matrix(0.000354, -0.067796, 0.151638, 0.000793, 334.829346, 226.231308)" d="M 706.75 614.121 A 58.804 58.804 0 0 1 707.375 496.516 L 707.375 555.32 Z" bx:shape="pie 707.375 555.32 0 58.804 180.609 360 1@957ce3e8"/>
    </g>
    <g transform="matrix(1, 0, 0, 1, -60.147327, 103.334152)">
      <rect x="385.387" y="151.229" width="127.93" height="41.856" style=""/>
      <rect x="387.247" y="152.934" width="124.759" height="38.424" style="fill: rgb(183, 154, 66);"/>
      <rect x="385.541" y="151.59" width="68.362" height="41.097" style=""/>
      <rect x="387.464" y="153.089" width="64.631" height="38.108" style="fill: rgb(183, 154, 66);"/>
      <g transform="matrix(0.219694, 0, 0, 0.219068, 327.013855, 126.184189)" style="">
        <rect x="382.166" y="149.175" width="74.729" height="46.181" style=""/>
        <rect x="387.464" y="153.089" width="64.631" height="38.108" style="fill: rgb(183, 154, 66);"/>
      </g>
      <path style="" transform="matrix(0.000354, -0.067796, 0.151638, 0.000793, 334.829346, 226.231308)" d="M 706.75 614.121 A 58.804 58.804 0 0 1 707.375 496.516 L 707.375 555.32 Z" bx:shape="pie 707.375 555.32 0 58.804 180.609 360 1@957ce3e8"/>
    </g>
    <g>
      <rect x="328.31" y="252.368" width="29.158" height="2.318" style="fill: rgb(216, 216, 216);"/>
      <rect x="328.975" y="250.876" width="7.263" height="1.567" style="fill: rgb(216, 216, 216);"/>
    </g>
    <g transform="matrix(1, 0, 0, 1, 10.180559, -0.319665)">
      <rect x="328.31" y="252.368" width="29.158" height="2.318" style="fill: rgb(216, 216, 216);"/>
      <rect x="328.975" y="250.876" width="7.263" height="1.567" style="fill: rgb(216, 216, 216);"/>
    </g>
    <g transform="matrix(1, 0, 0, 1, 19.574684, -0.693432)">
      <rect x="328.31" y="252.368" width="29.158" height="2.318" style="fill: rgb(216, 216, 216);"/>
      <rect x="328.975" y="250.876" width="7.263" height="1.567" style="fill: rgb(216, 216, 216);"/>
    </g>
    <g transform="matrix(1, 0, 0, 1, 30.180399, -0.157955)">
      <rect x="328.31" y="252.368" width="29.158" height="2.318" style="fill: rgb(216, 216, 216);"/>
      <rect x="328.975" y="250.876" width="7.263" height="1.567" style="fill: rgb(216, 216, 216);"/>
    </g>
    <g transform="matrix(1, 0, 0, 1, 37.646873, -0.596881)">
      <rect x="328.31" y="252.368" width="29.158" height="2.318" style="fill: rgb(216, 216, 216);"/>
      <rect x="328.975" y="250.876" width="7.263" height="1.567" style="fill: rgb(216, 216, 216);"/>
    </g>
    <g transform="matrix(1, 0, 0, 1, 46.787895, -0.274646)">
      <rect x="328.31" y="252.368" width="29.158" height="2.318" style="fill: rgb(216, 216, 216);"/>
      <rect x="328.975" y="250.876" width="7.263" height="1.567" style="fill: rgb(216, 216, 216);"/>
    </g>
    <g transform="matrix(1, 0, 0, 1, 57.467827, -0.205935)">
      <rect x="328.31" y="252.368" width="29.158" height="2.318" style="fill: rgb(216, 216, 216);"/>
      <rect x="328.975" y="250.876" width="7.263" height="1.567" style="fill: rgb(216, 216, 216);"/>
    </g>
    <g transform="matrix(1, 0, 0, 1, 66.862366, -0.288863)">
      <rect x="328.31" y="252.368" width="29.158" height="2.318" style="fill: rgb(216, 216, 216);"/>
      <rect x="328.975" y="250.876" width="7.263" height="1.567" style="fill: rgb(216, 216, 216);"/>
    </g>
    <g transform="matrix(1, 0, 0, 1, 77.080864, -0.404369)">
      <rect x="328.31" y="252.368" width="29.158" height="2.318" style="fill: rgb(216, 216, 216);"/>
      <rect x="328.975" y="250.876" width="7.263" height="1.567" style="fill: rgb(216, 216, 216);"/>
    </g>
    <g transform="matrix(1, 0, 0, 1, 89.097115, -0.227259)">
      <rect x="328.31" y="252.368" width="29.158" height="2.318" style="fill: rgb(216, 216, 216);"/>
      <rect x="328.975" y="250.876" width="7.263" height="1.567" style="fill: rgb(216, 216, 216);"/>
    </g>
    <g transform="matrix(1, 0, 0, 1, 95.603394, 0.130515)">
      <rect x="328.31" y="252.368" width="29.158" height="2.318" style="fill: rgb(216, 216, 216);"/>
      <rect x="328.975" y="250.876" width="7.263" height="1.567" style="fill: rgb(216, 216, 216);"/>
    </g>
  </g>
  <g id="g3626" transform="matrix(0.067916, 0, 0, 0.065426, 261.140717, 139.592667)" style="">
    <path id="path3628" style="fill: rgb(0, 0, 0);" d="M -19.431 1847.661 L -19.431 1758.249 L 179.765 1758.249 L 179.765 1937.067 L -19.431 1937.067 L -19.431 1847.654 Z M -19.431 1665.644 C -19.431 1655.692 -18.552 1641.721 -17.478 1634.598 C -15.095 1618.811 -6.568 1595.026 1.01 1583.023 C 14.692 1561.358 42.313 1533.981 90.219 1494.608 C 133.37 1459.142 153.845 1437.775 163.367 1418.27 C 168.634 1407.483 172.458 1392.622 172.458 1382.942 C 172.458 1346.762 148.398 1320.453 106.667 1311.003 C 93.874 1308.107 48.164 1308.01 30.825 1310.841 C -14.027 1318.169 -69.711 1338.399 -117.9 1364.873 L -134.602 1374.051 L -134.127 1295.143 L -133.652 1216.235 L -119.946 1212.25 C -35.402 1187.674 18.539 1177.892 80.176 1175.964 C 166.38 1173.267 239.232 1187.912 289.23 1217.988 C 345.888 1252.074 374.584 1308.537 371.094 1379.067 C 367.783 1446.019 339.675 1490.26 258.703 1555.979 C 191.623 1610.43 182.012 1623.593 180.242 1663.442 L 179.34 1683.725 L -19.412 1683.725 L -19.412 1665.63 Z"/>
  </g>
</svg>