<?xml version="1.0" encoding="utf-8"?>
<svg id="" viewBox="0 0 308.29 255.935" xmlns="http://www.w3.org/2000/svg" xmlns:bx="https://boxy-svg.com">
  <defs>
    <pattern id="pattern-0" x="0" y="0" width="25" height="25" patternUnits="userSpaceOnUse" viewBox="0 0 100 100">
      <rect x="0" y="0" width="50" height="100" style="fill: black;"/>
    </pattern>
  </defs>
  <g id="computer" transform="matrix(1, 0, 0, 1, -164.683685, -62.309231)">
    <g id="screen">
      <rect id="outerScreen" x="206.617" y="68.663" width="234.082" height="172.909" style="fill: rgb(29, 4, 4);"/>
      <rect id="innerScreen" x="215.98" y="77.403" width="215.98" height="155.431" style="fill: rgb(255, 255, 255);"/>
    </g>
    <g id="keyboard" transform="matrix(1.393613, 0, 0, 1.52382, -66.336945, -231.200134)">
      <rect id="outerKeyboard" x="230.065" y="311.076" width="117.353" height="44.24" style="fill: rgb(24, 25, 19);"/>
      <g id="keyboardKeys">
        <rect id="key1" x="429.996" y="472.83" width="9.406" height="8.603" style="fill: rgb(216, 216, 216);" transform="matrix(1.000002, 0, 0, 1, -193.243694, -157.202637)"/>
        <rect id="key2" x="252.236" y="315.627" width="9.406" height="8.603" style="fill: rgb(216, 216, 216);"/>
        <rect id="key3" x="267.466" y="315.627" width="9.406" height="8.603" style="fill: rgb(216, 216, 216);"/>
        <rect id="key4" x="283.591" y="315.627" width="9.406" height="8.603" style="fill: rgb(216, 216, 216);"/>
        <rect id="key5" x="299.268" y="315.627" width="9.406" height="8.603" style="fill: rgb(216, 216, 216);"/>
        <rect id="key6" x="314.945" y="315.627" width="9.406" height="8.603" style="fill: rgb(216, 216, 216);"/>
        <rect id="key7" x="331.07" y="315.627" width="9.406" height="8.603" style="fill: rgb(216, 216, 216);"/>
        <rect id="key8" x="429.997" y="472.83" width="9.406" height="8.603" style="fill: rgb(216, 216, 216);" transform="matrix(1.000002, 0, 0, 1, -193.244411, -144.344971)"/>
        <rect id="key9" x="252.236" y="328.485" width="9.406" height="8.603" style="fill: rgb(216, 216, 216);"/>
        <rect id="key10" x="267.466" y="328.485" width="9.406" height="8.603" style="fill: rgb(216, 216, 216);"/>
        <rect id="key11" x="283.591" y="328.485" width="9.406" height="8.603" style="fill: rgb(216, 216, 216);"/>
        <rect id="key12" x="299.268" y="328.485" width="9.406" height="8.603" style="fill: rgb(216, 216, 216);"/>
        <rect id="key13" x="314.945" y="328.485" width="9.406" height="8.603" style="fill: rgb(216, 216, 216);"/>
        <rect id="key14" x="331.07" y="328.485" width="9.406" height="8.603" style="fill: rgb(216, 216, 216);"/>
        <rect id="key15" x="236.753" y="342.208" width="9.406" height="8.603" style="fill: rgb(216, 216, 216);"/>
        <rect id="key16" x="252.237" y="342.208" width="9.406" height="8.603" style="fill: rgb(216, 216, 216);"/>
        <rect id="key17" x="267.466" y="342.208" width="9.406" height="8.603" style="fill: rgb(216, 216, 216);"/>
        <rect id="key18" x="283.591" y="342.208" width="9.406" height="8.603" style="fill: rgb(216, 216, 216);"/>
        <rect id="key19" x="299.268" y="342.208" width="9.406" height="8.603" style="fill: rgb(216, 216, 216);"/>
        <rect id="key20" x="314.945" y="342.208" width="9.406" height="8.603" style="fill: rgb(216, 216, 216);"/>
        <rect id="key21" x="331.07" y="342.208" width="9.406" height="8.603" style="fill: rgb(216, 216, 216);"/>
      </g>
    </g>
    <g id="mouse" transform="matrix(1.393613, 0, 0, 1.52382, -73.14563, -234.305161)">
      <ellipse id="mouseEllipse" transform="matrix(-0.997785, 0.066524, -0.066521, -0.997785, 796.597278, 781.09477)" cx="404.704" cy="465.943" rx="8.556" ry="13.708"/>
      <path id="mouseWire" d="M 361.066 334.004 C 361.066 332.097 360.948 329.896 363.612 328.589 C 367.421 326.719 379.344 327.792 374.641 323.174 C 372.737 321.305 370.792 321.017 366.157 320.258 C 365.204 320.103 357.674 320.727 357.674 319.842 C 357.674 317.977 358.426 309.846 356.825 309.846" style="stroke: rgb(0, 0, 0); fill: none;"/>
      <line id="buttonLine1" x1="361.119" y1="329.289" x2="361.119" y2="339.885" style="stroke: rgb(255, 255, 255);"/>
      <line id="buttonLine1" x1="353.55" y1="340.105" x2="369.918" y2="340.105" style="stroke: rgb(255, 255, 255);"/>
    </g>
  </g>
  <g id="symbols" transform="matrix(1, 0, 0, 1, -150.654785, -51.783817)">
    <g id="radioactive" transform="matrix(0.413007, 0, 0, 0.381283, 105.53257, -21.568481)" style="">
      <rect id="rect12402" style="stroke:#ffffff;stroke-linecap:round;stroke-width:0.3;fill:#ffff00" height="279.7" width="279.7" y="290.61" x="360.09"/>
      <path id="path11669-6-1" style="stroke:#000000;stroke-linecap:round;stroke-width:0.3;fill:#000000" d="m562.38 313.97-43.65 75.65c11.107 6.4726 18.563 18.499 18.563 32.281 0 0.0208 0.00003 0.0417 0 0.0625l87.504-0.0312c-0.0839-43.055-22.44-84.889-62.409-107.97zm-124.97 0.0625c-18.327 10.59-34.221 25.975-45.565 45.625-11.395 19.74-16.797 41.298-16.751 62.562l87.504 0.0312c-0.001-0.11401 0-0.2295 0-0.34375 0-13.742 7.416-25.733 18.47-32.219l-43.65-75.66zm43.971 140.31-43.783 75.875c39.919 23.039 87.241 21.543 124.54 0.15625l-43.815-75.938c-5.4246 3.0702-11.698 4.8438-18.376 4.8438-6.7535 0-13.097-1.8027-18.563-4.9375z"/>
      <path id="path11669" style="stroke:#000000;stroke-linecap:round;stroke-width:.36402;fill:#000000" d="m377.09 454.76a30.153 30.153 0 1 1 -60.306 0 30.153 30.153 0 1 1 60.306 0z" transform="matrix(.82414 0 0 .82414 214.01 47.577)"/>
    </g>
  </g>
  <g id="bigDumbWebDev" transform="matrix(1, 0, 0, 1, -211.500153, -56.06712)">
    <path id="hair" d="M 298.07 144.443 C 298.07 144.443 306.579 122.556 307.803 120.974 C 309.139 119.249 314.154 116.783 312.346 116.783 C 306.814 116.783 297.435 115.927 293.527 120.974 C 291.804 123.202 287.26 130.744 288.985 128.518 C 289.556 127.78 300.665 101.693 300.665 101.693 C 300.665 101.693 279.805 109.6 277.304 111.752 C 275.993 112.883 272.114 119.302 272.114 120.134 C 272.114 121.292 271.465 124.647 271.465 123.489 C 271.465 117.927 275.913 104.451 277.954 99.18 C 279.011 96.45 284.051 91.635 281.848 91.635 C 271.024 91.635 265.418 106.153 259.136 114.268 C 259.04 114.392 257.189 125.164 257.189 125.164 C 257.189 125.164 257.748 116.521 257.838 115.944 C 259.017 108.329 263.029 91.637 260.434 93.313 C 255.158 96.72 244.211 109.588 244.211 117.619 C 244.211 119.848 242.913 124.739 242.913 126.002 C 242.913 127.708 242.264 132.735 242.264 131.033 C 242.264 123.842 242.349 108.178 244.86 101.693 C 245.723 99.466 251.468 88.625 248.104 90.798 C 237.196 97.843 235.257 109.575 231.881 122.65 C 231.268 125.029 231.233 133.478 231.233 136.06 C 231.233 138.296 231.233 145.002 231.233 142.768 C 231.233 134.175 229.78 118.856 232.53 111.752 C 234.105 107.688 237.547 95.213 235.127 98.342 C 226.593 109.364 224.094 124.407 224.094 140.253 C 224.094 147.369 228.126 162.554 224.744 160.37" style="stroke: rgb(0, 0, 0);"/>
    <path id="body" d="M 600 380 A 54 54 0 1 1 600 272 L 600 326 Z" transform="matrix(0, 2.392844, -0.90743, 0, 559.55542, -1131.71106)" style="fill: rgb(95, 98, 60);" bx:shape="pie 600 326 0 54 180 360 1@f4435228"/>
    <ellipse id="face" transform="matrix(-0.525494, 0.850798, -0.850797, -0.525493, 478.179987, 103.321289)" cx="165.889" cy="149.226" rx="39.816" ry="40.706" style="fill: rgb(208, 188, 142);"/>
  </g>
</svg>