<?xml version="1.0" encoding="utf-8"?>
<svg viewBox="41 27.942 8.265 14.542" width="58px" height="74.586px" xmlns="http://www.w3.org/2000/svg" xmlns:bx="https://boxy-svg.com">
  <defs>
    <bx:grid x="32.46" y="23.721" width="33.208" height="43.196"/>
  </defs>
  <g id="bigDumbWebDev" transform="matrix(0.065293, 0, 0, 0.05881, 28.006763, 23.050068)" style="">
    <path id="hair" d="M 298.07 144.443 C 298.07 144.443 306.579 122.556 307.803 120.974 C 309.139 119.249 314.154 116.783 312.346 116.783 C 306.814 116.783 297.435 115.927 293.527 120.974 C 291.804 123.202 287.26 130.744 288.985 128.518 C 289.556 127.78 300.665 101.693 300.665 101.693 C 300.665 101.693 279.805 109.6 277.304 111.752 C 275.993 112.883 272.114 119.302 272.114 120.134 C 272.114 121.292 271.465 124.647 271.465 123.489 C 271.465 117.927 275.913 104.451 277.954 99.18 C 279.011 96.45 284.051 91.635 281.848 91.635 C 271.024 91.635 265.418 106.153 259.136 114.268 C 259.04 114.392 257.189 125.164 257.189 125.164 C 257.189 125.164 257.748 116.521 257.838 115.944 C 259.017 108.329 263.029 91.637 260.434 93.313 C 255.158 96.72 244.211 109.588 244.211 117.619 C 244.211 119.848 242.913 124.739 242.913 126.002 C 242.913 127.708 242.264 132.735 242.264 131.033 C 242.264 123.842 242.349 108.178 244.86 101.693 C 245.723 99.466 251.468 88.625 248.104 90.798 C 237.196 97.843 235.257 109.575 231.881 122.65 C 231.268 125.029 231.233 133.478 231.233 136.06 C 231.233 138.296 231.233 145.002 231.233 142.768 C 231.233 134.175 229.78 118.856 232.53 111.752 C 234.105 107.688 237.547 95.213 235.127 98.342 C 226.593 109.364 224.094 124.407 224.094 140.253 C 224.094 147.369 228.126 162.554 224.744 160.37" style="stroke: rgb(0, 0, 0);"/>
    <path id="body" d="M 600 380 A 54 54 0 1 1 600 272 L 600 326 Z" transform="matrix(0, 2.392844, -0.90743, 0, 559.55542, -1131.71106)" style="fill: rgb(95, 98, 60);" bx:shape="pie 600 326 0 54 180 360 1@f4435228"/>
    <ellipse id="face" transform="matrix(-0.525494, 0.850798, -0.850797, -0.525493, 478.179987, 103.321289)" cx="165.889" cy="149.226" rx="39.816" ry="40.706" style="fill: rgb(208, 188, 142);"/>
  </g>
</svg>