<?xml version="1.0" encoding="utf-8"?>
<svg id="bigDumbWebDevSVG" viewBox="111.817 52.097 387.548 275.095" xmlns="http://www.w3.org/2000/svg" xmlns:bx="https://boxy-svg.com">
  <defs>
    <pattern id="pattern-0" x="0" y="0" width="25" height="25" patternUnits="userSpaceOnUse" viewBox="0 0 100 100">
      <rect x="0" y="0" width="50" height="100" style="fill: black;"/>
    </pattern>
  </defs>
  <g id="computer">
    <g id="screen">
      <rect id="outerScreen" x="206.617" y="68.663" width="234.082" height="172.909" style="fill: rgb(29, 4, 4);"/>
      <rect id="innerScreen" x="215.98" y="77.403" width="215.98" height="155.431" style="fill: rgb(255, 255, 255);"/>
    </g>
    <g id="keyboard" transform="matrix(1.393613, 0, 0, 1.52382, -72.467117, -231.200134)">
      <rect id="outerKeyboard" x="230.065" y="311.076" width="117.353" height="44.24" style="fill: rgb(24, 25, 19);"/>
      <g>
        <rect id="key1" x="429.996" y="472.83" width="9.406" height="8.603" style="fill: rgb(216, 216, 216);" transform="matrix(1.000002, 0, 0, 1, -193.243694, -157.202637)"/>
        <rect id="key2" x="252.236" y="315.627" width="9.406" height="8.603" style="fill: rgb(216, 216, 216);"/>
        <rect id="key3" x="267.466" y="315.627" width="9.406" height="8.603" style="fill: rgb(216, 216, 216);"/>
        <rect id="key4" x="283.591" y="315.627" width="9.406" height="8.603" style="fill: rgb(216, 216, 216);"/>
        <rect id="key5" x="299.268" y="315.627" width="9.406" height="8.603" style="fill: rgb(216, 216, 216);"/>
        <rect id="key6" x="314.945" y="315.627" width="9.406" height="8.603" style="fill: rgb(216, 216, 216);"/>
        <rect id="key7" x="331.07" y="315.627" width="9.406" height="8.603" style="fill: rgb(216, 216, 216);"/>
        <rect id="key8" x="429.997" y="472.83" width="9.406" height="8.603" style="fill: rgb(216, 216, 216);" transform="matrix(1.000002, 0, 0, 1, -193.244411, -144.344971)"/>
        <rect id="key9" x="252.236" y="328.485" width="9.406" height="8.603" style="fill: rgb(216, 216, 216);"/>
        <rect id="key10" x="267.466" y="328.485" width="9.406" height="8.603" style="fill: rgb(216, 216, 216);"/>
        <rect id="key11" x="283.591" y="328.485" width="9.406" height="8.603" style="fill: rgb(216, 216, 216);"/>
        <rect id="key12" x="299.268" y="328.485" width="9.406" height="8.603" style="fill: rgb(216, 216, 216);"/>
        <rect id="key13" x="314.945" y="328.485" width="9.406" height="8.603" style="fill: rgb(216, 216, 216);"/>
        <rect id="key14" x="331.07" y="328.485" width="9.406" height="8.603" style="fill: rgb(216, 216, 216);"/>
        <rect id="key15" x="236.753" y="342.208" width="9.406" height="8.603" style="fill: rgb(216, 216, 216);"/>
        <rect id="key16" x="252.237" y="342.208" width="9.406" height="8.603" style="fill: rgb(216, 216, 216);"/>
        <rect id="key17" x="267.466" y="342.208" width="9.406" height="8.603" style="fill: rgb(216, 216, 216);"/>
        <rect id="key18" x="283.591" y="342.208" width="9.406" height="8.603" style="fill: rgb(216, 216, 216);"/>
        <rect id="key19" x="299.268" y="342.208" width="9.406" height="8.603" style="fill: rgb(216, 216, 216);"/>
        <rect id="key20" x="314.945" y="342.208" width="9.406" height="8.603" style="fill: rgb(216, 216, 216);"/>
        <rect id="key21" x="331.07" y="342.208" width="9.406" height="8.603" style="fill: rgb(216, 216, 216);"/>
      </g>
    </g>
    <g id="mouse" transform="matrix(1.393613, 0, 0, 1.52382, -73.14563, -234.305161)">
      <ellipse id="mouseEllipse" transform="matrix(-0.997785, 0.066524, -0.066521, -0.997785, 796.597278, 781.09477)" cx="404.704" cy="465.943" rx="8.556" ry="13.708"/>
      <path id="mouseWire" d="M 361.066 334.004 C 361.066 332.097 360.948 329.896 363.612 328.589 C 367.421 326.719 379.344 327.792 374.641 323.174 C 372.737 321.305 370.792 321.017 366.157 320.258 C 365.204 320.103 357.674 320.727 357.674 319.842 C 357.674 317.977 358.426 309.846 356.825 309.846" style="stroke: rgb(0, 0, 0); fill: none;"/>
      <line id="buttonLine1" x1="361.119" y1="329.289" x2="361.119" y2="339.885" style="stroke: rgb(255, 255, 255);"/>
      <line id="buttonLine1" x1="352.346" y1="339.885" x2="368.714" y2="339.885" style="stroke: rgb(255, 255, 255);"/>
    </g>
  </g>
  <g id="figures">
    <path id="questionMark" style="fill:#000000" d="M 183.166 95.235 L 183.166 91.484 L 189.956 91.484 L 189.956 98.986 L 183.166 98.986 L 183.166 95.235 Z M 183.166 87.599 C 183.166 87.182 183.196 86.596 183.233 86.297 C 183.314 85.635 183.605 84.637 183.863 84.133 C 184.329 83.224 185.271 82.076 186.904 80.424 C 188.375 78.936 189.073 78.04 189.397 77.221 C 189.577 76.769 189.707 76.145 189.707 75.739 C 189.707 74.221 188.887 73.118 187.465 72.721 C 187.028 72.6 185.47 72.596 184.879 72.715 C 183.35 73.022 181.452 73.871 179.809 74.981 L 179.24 75.366 L 179.256 72.056 L 179.272 68.746 L 179.74 68.578 C 182.622 67.547 184.46 67.137 186.562 67.056 C 189.5 66.943 191.983 67.557 193.688 68.819 C 195.619 70.249 196.597 72.618 196.478 75.577 C 196.366 78.386 195.407 80.242 192.647 82.999 C 190.361 85.283 190.033 85.835 189.973 87.507 L 189.942 88.358 L 183.167 88.358 L 183.167 87.599 Z"/>
    <path id="redX" d="M 397.703 132.183 H 434.423 V 202.947 H 507.861 V 238.33 H 434.423 V 309.095 H 397.703 V 238.33 H 324.265 V 202.947 H 397.703 Z" style="fill: rgb(245, 0, 0);" transform="matrix(0.719339, 0.694659, -0.694659, 0.719339, 182.010908, -291.515384)" bx:shape="cross 324.265 132.183 183.596 176.912 35.383 36.72 0.5 1@c46ed447"/>
  </g>
  <g id="bigDumbWebDev" transform="matrix(1, 0, 0, 1, -46.816479, 6.242121)">
    <path id="hair" d="M 298.07 144.443 C 298.07 144.443 306.579 122.556 307.803 120.974 C 309.139 119.249 314.154 116.783 312.346 116.783 C 306.814 116.783 297.435 115.927 293.527 120.974 C 291.804 123.202 287.26 130.744 288.985 128.518 C 289.556 127.78 300.665 101.693 300.665 101.693 C 300.665 101.693 279.805 109.6 277.304 111.752 C 275.993 112.883 272.114 119.302 272.114 120.134 C 272.114 121.292 271.465 124.647 271.465 123.489 C 271.465 117.927 275.913 104.451 277.954 99.18 C 279.011 96.45 284.051 91.635 281.848 91.635 C 271.024 91.635 265.418 106.153 259.136 114.268 C 259.04 114.392 257.189 125.164 257.189 125.164 C 257.189 125.164 257.748 116.521 257.838 115.944 C 259.017 108.329 263.029 91.637 260.434 93.313 C 255.158 96.72 244.211 109.588 244.211 117.619 C 244.211 119.848 242.913 124.739 242.913 126.002 C 242.913 127.708 242.264 132.735 242.264 131.033 C 242.264 123.842 242.349 108.178 244.86 101.693 C 245.723 99.466 251.468 88.625 248.104 90.798 C 237.196 97.843 235.257 109.575 231.881 122.65 C 231.268 125.029 231.233 133.478 231.233 136.06 C 231.233 138.296 231.233 145.002 231.233 142.768 C 231.233 134.175 229.78 118.856 232.53 111.752 C 234.105 107.688 237.547 95.213 235.127 98.342 C 226.593 109.364 224.094 124.407 224.094 140.253 C 224.094 147.369 228.126 162.554 224.744 160.37" style="stroke: rgb(0, 0, 0);"/>
    <path id="body" d="M 600 380 A 54 54 0 1 1 600 272 L 600 326 Z" transform="matrix(0, 2.392844, -0.90743, 0, 559.55542, -1131.71106)" style="fill: rgb(95, 98, 60);" bx:shape="pie 600 326 0 54 180 360 1@f4435228"/>
    <ellipse id="face" transform="matrix(-0.525494, 0.850798, -0.850797, -0.525493, 478.179987, 103.321289)" cx="165.889" cy="149.226" rx="39.816" ry="40.706" style="fill: rgb(208, 188, 142);"/>
  </g>
</svg>