<?xml version="1.0" encoding="utf-8"?>
<svg id="bigDumbWebDevSVG" viewBox="0 0 308.29 255.935" xmlns="http://www.w3.org/2000/svg" xmlns:bx="https://boxy-svg.com">
  <defs>
    <pattern id="pattern-0" x="0" y="0" width="25" height="25" patternUnits="userSpaceOnUse" viewBox="0 0 100 100">
      <rect x="0" y="0" width="50" height="100" style="fill: black;"/>
    </pattern>
    <radialGradient id="radialGradient3078" gradientUnits="userSpaceOnUse" cy="158.17" cx="61.088" gradientTransform="scale(1.2181 .82098)" r="21.214">
      <stop id="stop3075" style="stop-color:#ffffff;stop-opacity:.53371" offset="0"/>
      <stop id="stop3076" style="stop-color:#000000;stop-opacity:.69101" offset="1"/>
    </radialGradient>
  </defs>
  <g id="computer" transform="matrix(1, 0, 0, 1, -164.683685, -62.309231)">
    <g id="screen">
      <rect id="outerScreen" x="206.617" y="68.663" width="234.082" height="172.909" style="fill: rgb(29, 4, 4);"/>
      <rect id="innerScreen" x="215.98" y="77.403" width="215.98" height="155.431" style="fill: rgb(255, 255, 255);"/>
    </g>
    <g id="keyboard" transform="matrix(1.393613, 0, 0, 1.52382, -66.336945, -231.200134)">
      <rect id="outerKeyboard" x="230.065" y="311.076" width="117.353" height="44.24" style="fill: rgb(24, 25, 19);"/>
      <g id="keyboardKeys">
        <rect id="key1" x="429.996" y="472.83" width="9.406" height="8.603" style="fill: rgb(216, 216, 216);" transform="matrix(1.000002, 0, 0, 1, -193.243694, -157.202637)"/>
        <rect id="key2" x="252.236" y="315.627" width="9.406" height="8.603" style="fill: rgb(216, 216, 216);"/>
        <rect id="key3" x="267.466" y="315.627" width="9.406" height="8.603" style="fill: rgb(216, 216, 216);"/>
        <rect id="key4" x="283.591" y="315.627" width="9.406" height="8.603" style="fill: rgb(216, 216, 216);"/>
        <rect id="key5" x="299.268" y="315.627" width="9.406" height="8.603" style="fill: rgb(216, 216, 216);"/>
        <rect id="key6" x="314.945" y="315.627" width="9.406" height="8.603" style="fill: rgb(216, 216, 216);"/>
        <rect id="key7" x="331.07" y="315.627" width="9.406" height="8.603" style="fill: rgb(216, 216, 216);"/>
        <rect id="key8" x="429.997" y="472.83" width="9.406" height="8.603" style="fill: rgb(216, 216, 216);" transform="matrix(1.000002, 0, 0, 1, -193.244411, -144.344971)"/>
        <rect id="key9" x="252.236" y="328.485" width="9.406" height="8.603" style="fill: rgb(216, 216, 216);"/>
        <rect id="key10" x="267.466" y="328.485" width="9.406" height="8.603" style="fill: rgb(216, 216, 216);"/>
        <rect id="key11" x="283.591" y="328.485" width="9.406" height="8.603" style="fill: rgb(216, 216, 216);"/>
        <rect id="key12" x="299.268" y="328.485" width="9.406" height="8.603" style="fill: rgb(216, 216, 216);"/>
        <rect id="key13" x="314.945" y="328.485" width="9.406" height="8.603" style="fill: rgb(216, 216, 216);"/>
        <rect id="key14" x="331.07" y="328.485" width="9.406" height="8.603" style="fill: rgb(216, 216, 216);"/>
        <rect id="key15" x="236.753" y="342.208" width="9.406" height="8.603" style="fill: rgb(216, 216, 216);"/>
        <rect id="key16" x="252.237" y="342.208" width="9.406" height="8.603" style="fill: rgb(216, 216, 216);"/>
        <rect id="key17" x="267.466" y="342.208" width="9.406" height="8.603" style="fill: rgb(216, 216, 216);"/>
        <rect id="key18" x="283.591" y="342.208" width="9.406" height="8.603" style="fill: rgb(216, 216, 216);"/>
        <rect id="key19" x="299.268" y="342.208" width="9.406" height="8.603" style="fill: rgb(216, 216, 216);"/>
        <rect id="key20" x="314.945" y="342.208" width="9.406" height="8.603" style="fill: rgb(216, 216, 216);"/>
        <rect id="key21" x="331.07" y="342.208" width="9.406" height="8.603" style="fill: rgb(216, 216, 216);"/>
      </g>
    </g>
    <g id="mouse" transform="matrix(1.393613, 0, 0, 1.52382, -73.14563, -234.305161)">
      <ellipse id="mouseEllipse" transform="matrix(-0.997785, 0.066524, -0.066521, -0.997785, 796.597278, 781.09477)" cx="404.704" cy="465.943" rx="8.556" ry="13.708"/>
      <path id="mouseWire" d="M 361.066 334.004 C 361.066 332.097 360.948 329.896 363.612 328.589 C 367.421 326.719 379.344 327.792 374.641 323.174 C 372.737 321.305 370.792 321.017 366.157 320.258 C 365.204 320.103 357.674 320.727 357.674 319.842 C 357.674 317.977 358.426 309.846 356.825 309.846" style="stroke: rgb(0, 0, 0); fill: none;"/>
      <line id="buttonLine1" x1="361.119" y1="329.289" x2="361.119" y2="339.885" style="stroke: rgb(255, 255, 255);"/>
      <line id="buttonLine1" x1="353.55" y1="340.105" x2="369.918" y2="340.105" style="stroke: rgb(255, 255, 255);"/>
    </g>
    <g id="morseCode" transform="matrix(1.393613, 0, 0, 1.52382, -72.467117, -231.200134)" style="visibility: hidden;">
      <g class="letterI" id="letter1" transform="matrix(0.731169, 0, 0, 0.631901, 30.148207, 49.65136)">
        <path transform="matrix(1.6123746,0,0,1.6123746,-125.67204,74.816957)" d="M 246.53081,108.56782 A 2.3257623,2.3257623 0 1 1 241.87929,108.56782 A 2.3257623,2.3257623 0 1 1 246.53081,108.56782 z" id="path-22" style="fill: rgb(0, 0, 0); fill-opacity: 1; fill-rule: evenodd; stroke: none; stroke-width: 3; marker: none; stroke-miterlimit: 4; stroke-dasharray: none; stroke-opacity: 1; display: inline; overflow: visible;"/>
        <path transform="matrix(1.6123746,0,0,1.6123746,-110.67204,74.816957)" d="M 246.53081,108.56782 A 2.3257623,2.3257623 0 1 1 241.87929,108.56782 A 2.3257623,2.3257623 0 1 1 246.53081,108.56782 z" id="path-23" style="fill: rgb(0, 0, 0); fill-opacity: 1; fill-rule: evenodd; stroke: none; stroke-width: 3; marker: none; stroke-miterlimit: 4; stroke-dasharray: none; stroke-opacity: 1; display: inline; overflow: visible;"/>
      </g>
      <g class="letterF" id="letter2" transform="matrix(0.731169, 0, 0, 0.631901, 66.492302, 80.214119)">
        <rect style="fill: rgb(0, 0, 0); fill-opacity: 1; fill-rule: nonzero; stroke: none; stroke-width: 1; stroke-linecap: butt; stroke-linejoin: miter; marker: none; stroke-miterlimit: 4; stroke-dasharray: none; stroke-dashoffset: 0; stroke-opacity: 1; display: inline; overflow: visible;" id="rect3713" width="22.5" height="7.5" x="294.81696" y="197.40419"/>
        <path style="fill: rgb(0, 0, 0); fill-opacity: 1; fill-rule: evenodd; stroke: none; stroke-width: 3; marker: none; stroke-miterlimit: 4; stroke-dasharray: none; stroke-opacity: 1; display: inline; overflow: visible;" id="path3725" d="M 246.53081,108.56782 A 2.3257623,2.3257623 0 1 1 241.87929,108.56782 A 2.3257623,2.3257623 0 1 1 246.53081,108.56782 z" transform="matrix(1.6123746,0,0,1.6123746,-126.97597,26.102198)"/>
        <path style="fill: rgb(0, 0, 0); fill-opacity: 1; fill-rule: evenodd; stroke: none; stroke-width: 3; marker: none; stroke-miterlimit: 4; stroke-dasharray: none; stroke-opacity: 1; display: inline; overflow: visible;" id="path3729" d="M 246.53081,108.56782 A 2.3257623,2.3257623 0 1 1 241.87929,108.56782 A 2.3257623,2.3257623 0 1 1 246.53081,108.56782 z" transform="matrix(1.6123746,0,0,1.6123746,-111.97597,26.102198)"/>
        <path style="fill: rgb(0, 0, 0); fill-opacity: 1; fill-rule: evenodd; stroke: none; stroke-width: 3; marker: none; stroke-miterlimit: 4; stroke-dasharray: none; stroke-opacity: 1; display: inline; overflow: visible;" id="path3741" d="M 246.53081,108.56782 A 2.3257623,2.3257623 0 1 1 241.87929,108.56782 A 2.3257623,2.3257623 0 1 1 246.53081,108.56782 z" transform="matrix(1.6286878,0,0,1.6123746,-70.694161,26.102198)"/>
      </g>
      <g class="letterY" id="letter3" transform="matrix(0.731169, 0, 0, 0.631901, -123.580406, 114.822777)">
        <rect style="fill: rgb(0, 0, 0); fill-opacity: 1; fill-rule: nonzero; stroke: none; stroke-width: 1; stroke-linecap: butt; stroke-linejoin: miter; marker: none; stroke-miterlimit: 4; stroke-dasharray: none; stroke-dashoffset: 0; stroke-opacity: 1; display: inline; overflow: visible;" id="rect4936" width="22.5" height="7.5" x="457.99487" y="154.97975"/>
        <rect style="fill: rgb(0, 0, 0); fill-opacity: 1; fill-rule: nonzero; stroke: none; stroke-width: 1; stroke-linecap: butt; stroke-linejoin: miter; marker: none; stroke-miterlimit: 4; stroke-dasharray: none; stroke-dashoffset: 0; stroke-opacity: 1; display: inline; overflow: visible;" id="rect4948" width="22.5" height="7.5" x="503.0708" y="154.97975"/>
        <rect y="154.97975" x="533.37433" height="7.5" width="22.5" id="rect4954" style="fill: rgb(0, 0, 0); fill-opacity: 1; fill-rule: nonzero; stroke: none; stroke-width: 1; stroke-linecap: butt; stroke-linejoin: miter; marker: none; stroke-miterlimit: 4; stroke-dasharray: none; stroke-dashoffset: 0; stroke-opacity: 1; display: inline; overflow: visible;"/>
        <path style="fill: rgb(0, 0, 0); fill-opacity: 1; fill-rule: evenodd; stroke: none; stroke-width: 3; marker: none; stroke-miterlimit: 4; stroke-dasharray: none; stroke-opacity: 1; display: inline; overflow: visible;" id="path4964" d="M 246.53081,108.56782 A 2.3257623,2.3257623 0 1 1 241.87929,108.56782 A 2.3257623,2.3257623 0 1 1 246.53081,108.56782 z" transform="matrix(1.6123746,0,0,1.6123746,97.99487,-16.322247)"/>
      </g>
      <g class="letterO" id="letter4" transform="matrix(0.731169, 0, 0, 0.631901, 98.816528, -17.355589)">
        <rect style="fill: rgb(0, 0, 0); fill-opacity: 1; fill-rule: nonzero; stroke: none; stroke-width: 1; stroke-linecap: butt; stroke-linejoin: miter; marker: none; stroke-miterlimit: 4; stroke-dasharray: none; stroke-dashoffset: 0; stroke-opacity: 1; display: inline; overflow: visible;" id="rect4510" width="22.5" height="7.5" x="262.27341" y="363.57541"/>
        <rect style="fill: rgb(0, 0, 0); fill-opacity: 1; fill-rule: nonzero; stroke: none; stroke-width: 1; stroke-linecap: butt; stroke-linejoin: miter; marker: none; stroke-miterlimit: 4; stroke-dasharray: none; stroke-dashoffset: 0; stroke-opacity: 1; display: inline; overflow: visible;" id="rect4518" width="22.5" height="7.5" x="292.27341" y="363.57541"/>
        <rect y="363.57541" x="322.50104" height="7.5" width="22.5" id="rect4524" style="fill: rgb(0, 0, 0); fill-opacity: 1; fill-rule: nonzero; stroke: none; stroke-width: 1; stroke-linecap: butt; stroke-linejoin: miter; marker: none; stroke-miterlimit: 4; stroke-dasharray: none; stroke-dashoffset: 0; stroke-opacity: 1; display: inline; overflow: visible;"/>
      </g>
      <g class="letterU" id="letter5" transform="matrix(0.731169, 0, 0, 0.631901, 50.749214, -74.416267)">
        <rect style="fill: rgb(0, 0, 0); fill-opacity: 1; fill-rule: nonzero; stroke: none; stroke-width: 1; stroke-linecap: butt; stroke-linejoin: miter; marker: none; stroke-miterlimit: 4; stroke-dasharray: none; stroke-dashoffset: 0; stroke-opacity: 1; display: inline; overflow: visible;" id="rect4776" width="22.5" height="7.5" x="287.43991" y="468.01306"/>
        <path style="fill: rgb(0, 0, 0); fill-opacity: 1; fill-rule: evenodd; stroke: none; stroke-width: 3; marker: none; stroke-miterlimit: 4; stroke-dasharray: none; stroke-opacity: 1; display: inline; overflow: visible;" id="path4788" d="M 246.53081,108.56782 A 2.3257623,2.3257623 0 1 1 241.87929,108.56782 A 2.3257623,2.3257623 0 1 1 246.53081,108.56782 z" transform="matrix(1.6123746,0,0,1.6123746,-132.56009,296.71108)"/>
        <path style="fill: rgb(0, 0, 0); fill-opacity: 1; fill-rule: evenodd; stroke: none; stroke-width: 3; marker: none; stroke-miterlimit: 4; stroke-dasharray: none; stroke-opacity: 1; display: inline; overflow: visible;" id="path4792" d="M 246.53081,108.56782 A 2.3257623,2.3257623 0 1 1 241.87929,108.56782 A 2.3257623,2.3257623 0 1 1 246.53081,108.56782 z" transform="matrix(1.6123746,0,0,1.6123746,-117.56009,296.71108)"/>
      </g>
      <g class="letterC" id="letter6" transform="matrix(0.731169, 0, 0, 0.631901, 93.082466, 132.526611)">
        <rect style="fill: rgb(0, 0, 0); fill-opacity: 1; fill-rule: nonzero; stroke: none; stroke-width: 1; stroke-linecap: butt; stroke-linejoin: miter; marker: none; stroke-miterlimit: 4; stroke-dasharray: none; stroke-dashoffset: 0; stroke-opacity: 1; display: inline; overflow: visible;" id="rect3705" width="22.5" height="7.5" x="263.83899" y="140.52052"/>
        <rect style="fill: rgb(0, 0, 0); fill-opacity: 1; fill-rule: nonzero; stroke: none; stroke-width: 1; stroke-linecap: butt; stroke-linejoin: miter; marker: none; stroke-miterlimit: 4; stroke-dasharray: none; stroke-dashoffset: 0; stroke-opacity: 1; display: inline; overflow: visible;" id="rect3717" width="22.5" height="7.5" x="309.40384" y="140.52052"/>
        <path style="fill: rgb(0, 0, 0); fill-opacity: 1; fill-rule: evenodd; stroke: none; stroke-width: 3; marker: none; stroke-miterlimit: 4; stroke-dasharray: none; stroke-opacity: 1; display: inline; overflow: visible;" id="path3733" d="M 246.53081,108.56782 A 2.3257623,2.3257623 0 1 1 241.87929,108.56782 A 2.3257623,2.3257623 0 1 1 246.53081,108.56782 z" transform="matrix(1.6123746,0,0,1.6123746,-95.998034,-30.781469)"/>
        <path style="fill: rgb(0, 0, 0); fill-opacity: 1; fill-rule: evenodd; stroke: none; stroke-width: 3; marker: none; stroke-miterlimit: 4; stroke-dasharray: none; stroke-opacity: 1; display: inline; overflow: visible;" id="path3751" d="M 246.53081,108.56782 A 2.3257623,2.3257623 0 1 1 241.87929,108.56782 A 2.3257623,2.3257623 0 1 1 246.53081,108.56782 z" transform="matrix(1.6286878,0,0,1.6123746,-54.564464,-30.781469)"/>
      </g>
      <g class="letterA" id="letter7" transform="matrix(0.731169, 0, 0, 0.631901, 55.221428, 167.25032)" style="fill:#000000">
        <path style="opacity: 1; fill: rgb(0, 0, 0); fill-opacity: 1; fill-rule: evenodd; stroke: none; stroke-width: 3; marker: none; stroke-miterlimit: 4; stroke-dasharray: none; stroke-opacity: 1; display: inline; overflow: visible;" id="path3184" d="M 246.53081,108.56782 A 2.3257623,2.3257623 0 1 1 241.87929,108.56782 A 2.3257623,2.3257623 0 1 1 246.53081,108.56782 z" transform="matrix(1.6123746,0,0,1.6123746,-126.70119,-68.492412)"/>
        <rect style="opacity: 1; fill: rgb(0, 0, 0); fill-opacity: 1; fill-rule: nonzero; stroke: none; stroke-width: 1; stroke-linecap: butt; stroke-linejoin: miter; marker: none; stroke-miterlimit: 4; stroke-dasharray: none; stroke-dashoffset: 0; stroke-opacity: 1; display: inline; overflow: visible;" id="rect3190" width="22.5" height="7.5" x="278.29883" y="102.80958"/>
      </g>
      <g class="letterN" id="letter8" transform="matrix(0.731169, 0, 0, 0.631901, 95.704262, 15.514682)">
        <g id="g6869">
          <rect y="342.93527" x="260.2532" height="7.5" width="22.5" id="rect4443" style="fill: rgb(0, 0, 0); fill-opacity: 1; fill-rule: nonzero; stroke: none; stroke-width: 1; stroke-linecap: butt; stroke-linejoin: miter; marker: none; stroke-miterlimit: 4; stroke-dasharray: none; stroke-dashoffset: 0; stroke-opacity: 1; display: inline; overflow: visible;"/>
          <path transform="matrix(1.6123746,0,0,1.6123746,-99.746807,171.63329)" d="M 246.53081,108.56782 A 2.3257623,2.3257623 0 1 1 241.87929,108.56782 A 2.3257623,2.3257623 0 1 1 246.53081,108.56782 z" id="path4464" style="fill: rgb(0, 0, 0); fill-opacity: 1; fill-rule: evenodd; stroke: none; stroke-width: 3; marker: none; stroke-miterlimit: 4; stroke-dasharray: none; stroke-opacity: 1; display: inline; overflow: visible;"/>
        </g>
      </g>
      <g class="letterR" id="letter9" transform="matrix(0.731169, 0, 0, 0.631901, 129.835617, -32.741524)">
        <rect style="fill: rgb(0, 0, 0); fill-opacity: 1; fill-rule: nonzero; stroke: none; stroke-width: 1; stroke-linecap: butt; stroke-linejoin: miter; marker: none; stroke-miterlimit: 4; stroke-dasharray: none; stroke-dashoffset: 0; stroke-opacity: 1; display: inline; overflow: visible;" id="rect4646" width="22.5" height="7.5" x="274.03427" y="419.30203"/>
        <path style="fill: rgb(0, 0, 0); fill-opacity: 1; fill-rule: evenodd; stroke: none; stroke-width: 3; marker: none; stroke-miterlimit: 4; stroke-dasharray: none; stroke-opacity: 1; display: inline; overflow: visible;" id="path4662" d="M 246.53081,108.56782 A 2.3257623,2.3257623 0 1 1 241.87929,108.56782 A 2.3257623,2.3257623 0 1 1 246.53081,108.56782 z" transform="matrix(1.6123746,0,0,1.6123746,-130.96572,248.00004)"/>
        <path style="fill: rgb(0, 0, 0); fill-opacity: 1; fill-rule: evenodd; stroke: none; stroke-width: 3; marker: none; stroke-miterlimit: 4; stroke-dasharray: none; stroke-opacity: 1; display: inline; overflow: visible;" id="path4674" d="M 246.53081,108.56782 A 2.3257623,2.3257623 0 1 1 241.87929,108.56782 A 2.3257623,2.3257623 0 1 1 246.53081,108.56782 z" transform="matrix(1.6286878,0,0,1.6123746,-89.835673,248.00004)"/>
      </g>
      <g class="letterE" id="letter10" transform="matrix(0.717559, 0, 0, 0.656245, 29.520042, 145.789642)">
        <path style="fill: rgb(0, 0, 0); fill-opacity: 1; fill-rule: evenodd; stroke: none; stroke-width: 3; marker: none; stroke-miterlimit: 4; stroke-dasharray: none; stroke-opacity: 1; display: inline; overflow: visible;" id="path-21" d="M 314.83 151.023 C 314.835 153.803 311.653 155.545 309.104 154.158 C 307.917 153.513 307.186 152.317 307.188 151.023 C 307.184 148.244 310.366 146.502 312.916 147.889 C 314.102 148.534 314.833 149.73 314.83 151.023 Z"/>
      </g>
      <g class="letterA" id="letter11" transform="matrix(0.731169, 0, 0, 0.631901, 77.31266, 177.33197)" style="fill:#000000">
        <path style="opacity: 1; fill: rgb(0, 0, 0); fill-opacity: 1; fill-rule: evenodd; stroke: none; stroke-width: 3; marker: none; stroke-miterlimit: 4; stroke-dasharray: none; stroke-opacity: 1; display: inline; overflow: visible;" id="path-1" d="M 246.53081,108.56782 A 2.3257623,2.3257623 0 1 1 241.87929,108.56782 A 2.3257623,2.3257623 0 1 1 246.53081,108.56782 z" transform="matrix(1.6123746,0,0,1.6123746,-126.70119,-68.492412)"/>
        <rect style="opacity: 1; fill: rgb(0, 0, 0); fill-opacity: 1; fill-rule: nonzero; stroke: none; stroke-width: 1; stroke-linecap: butt; stroke-linejoin: miter; marker: none; stroke-miterlimit: 4; stroke-dasharray: none; stroke-dashoffset: 0; stroke-opacity: 1; display: inline; overflow: visible;" id="rect-1" width="22.5" height="7.5" x="278.29883" y="102.80958"/>
      </g>
      <g class="letterD" id="letter12" transform="matrix(0.731169, 0, 0, 0.631901, 116.564194, 142.688034)">
        <rect style="fill: rgb(0, 0, 0); fill-opacity: 1; fill-rule: nonzero; stroke: none; stroke-width: 1; stroke-linecap: butt; stroke-linejoin: miter; marker: none; stroke-miterlimit: 4; stroke-dasharray: none; stroke-dashoffset: 0; stroke-opacity: 1; display: inline; overflow: visible;" id="rect3984" width="22.5" height="7.5" x="265.30594" y="157.63454"/>
        <path style="fill: rgb(0, 0, 0); fill-opacity: 1; fill-rule: evenodd; stroke: none; stroke-width: 3; marker: none; stroke-miterlimit: 4; stroke-dasharray: none; stroke-opacity: 1; display: inline; overflow: visible;" id="path4000" d="M 246.53081,108.56782 A 2.3257623,2.3257623 0 1 1 241.87929,108.56782 A 2.3257623,2.3257623 0 1 1 246.53081,108.56782 z" transform="matrix(1.6123746,0,0,1.6123746,-96.32401,-13.667455)"/>
        <path style="fill: rgb(0, 0, 0); fill-opacity: 1; fill-rule: evenodd; stroke: none; stroke-width: 3; marker: none; stroke-miterlimit: 4; stroke-dasharray: none; stroke-opacity: 1; display: inline; overflow: visible;" id="path3737" d="M 246.53081,108.56782 A 2.3257623,2.3257623 0 1 1 241.87929,108.56782 A 2.3257623,2.3257623 0 1 1 246.53081,108.56782 z" transform="matrix(1.6286878,0,0,1.6123746,-85.19396,-13.667455)"/>
      </g>
      <g class="letterT" id="letter13" transform="matrix(0.717559, 0, 0, 0.656245, 78.499199, 146.027222)">
        <rect y="161.46" x="223.65" height="7.222" width="22.927" id="rect4726" style="fill: rgb(0, 0, 0); fill-opacity: 1; fill-rule: nonzero; stroke: none; stroke-width: 1; stroke-linecap: butt; stroke-linejoin: miter; marker: none; stroke-miterlimit: 4; stroke-dasharray: none; stroke-dashoffset: 0; stroke-opacity: 1; display: inline; overflow: visible;"/>
      </g>
      <g class="letterH" id="letter14" transform="matrix(0.717559, 0, 0, 0.656245, 81.914307, 145.637421)">
        <path style="fill: rgb(0, 0, 0); fill-opacity: 1; fill-rule: evenodd; stroke: none; stroke-width: 3; marker: none; stroke-miterlimit: 4; stroke-dasharray: none; stroke-opacity: 1; display: inline; overflow: visible;" id="path4198" d="M 261.17 164.755 C 261.174 167.535 257.992 169.276 255.443 167.89 C 254.256 167.245 253.526 166.049 253.528 164.755 C 253.524 161.975 256.705 160.234 259.255 161.62 C 260.441 162.266 261.172 163.461 261.17 164.755 Z"/>
        <path style="fill: rgb(0, 0, 0); fill-opacity: 1; fill-rule: evenodd; stroke: none; stroke-width: 3; marker: none; stroke-miterlimit: 4; stroke-dasharray: none; stroke-opacity: 1; display: inline; overflow: visible;" id="path-2" d="M 272.83 164.522 C 272.835 167.302 269.653 169.043 267.103 167.657 C 265.917 167.011 265.186 165.816 265.188 164.522 C 265.184 161.742 268.366 160.001 270.915 161.387 C 272.102 162.032 272.832 163.228 272.83 164.522 Z"/>
        <path style="fill: rgb(0, 0, 0); fill-opacity: 1; fill-rule: evenodd; stroke: none; stroke-width: 3; marker: none; stroke-miterlimit: 4; stroke-dasharray: none; stroke-opacity: 1; display: inline; overflow: visible;" id="path-3" d="M 283.325 164.522 C 283.329 167.302 280.147 169.043 277.598 167.657 C 276.411 167.011 275.681 165.816 275.683 164.522 C 275.678 161.742 278.86 160.001 281.41 161.387 C 282.596 162.032 283.327 163.228 283.325 164.522 Z"/>
        <path style="fill: rgb(0, 0, 0); fill-opacity: 1; fill-rule: evenodd; stroke: none; stroke-width: 3; marker: none; stroke-miterlimit: 4; stroke-dasharray: none; stroke-opacity: 1; display: inline; overflow: visible;" id="path-4" d="M 294.752 164.522 C 294.756 167.302 291.575 169.043 289.025 167.657 C 287.838 167.011 287.108 165.816 287.11 164.522 C 287.106 161.742 290.287 160.001 292.837 161.387 C 294.023 162.032 294.754 163.228 294.752 164.522 Z"/>
      </g>
      <g class="letterI" id="letter15" transform="matrix(0.731169, 0, 0, 0.631901, 105.852562, 95.481087)">
        <path transform="matrix(1.6123746,0,0,1.6123746,-125.67204,74.816957)" d="M 246.53081,108.56782 A 2.3257623,2.3257623 0 1 1 241.87929,108.56782 A 2.3257623,2.3257623 0 1 1 246.53081,108.56782 z" id="path-5" style="fill: rgb(0, 0, 0); fill-opacity: 1; fill-rule: evenodd; stroke: none; stroke-width: 3; marker: none; stroke-miterlimit: 4; stroke-dasharray: none; stroke-opacity: 1; display: inline; overflow: visible;"/>
        <path transform="matrix(1.6123746,0,0,1.6123746,-110.67204,74.816957)" d="M 246.53081,108.56782 A 2.3257623,2.3257623 0 1 1 241.87929,108.56782 A 2.3257623,2.3257623 0 1 1 246.53081,108.56782 z" id="path-6" style="fill: rgb(0, 0, 0); fill-opacity: 1; fill-rule: evenodd; stroke: none; stroke-width: 3; marker: none; stroke-miterlimit: 4; stroke-dasharray: none; stroke-opacity: 1; display: inline; overflow: visible;"/>
      </g>
      <g class="letterS" id="letter16" transform="matrix(0.717559, 0, 0, 0.656245, 90.006821, 145.34407)">
        <path style="fill: rgb(0, 0, 0); fill-opacity: 1; fill-rule: evenodd; stroke: none; stroke-width: 3; marker: none; stroke-miterlimit: 4; stroke-dasharray: none; stroke-opacity: 1; display: inline; overflow: visible;" id="path-7" d="M 332.765 165.202 C 332.769 167.982 329.588 169.723 327.038 168.337 C 325.852 167.692 325.121 166.496 325.123 165.202 C 325.119 162.422 328.301 160.681 330.85 162.067 C 332.036 162.713 332.767 163.908 332.765 165.202 Z"/>
        <path style="fill: rgb(0, 0, 0); fill-opacity: 1; fill-rule: evenodd; stroke: none; stroke-width: 3; marker: none; stroke-miterlimit: 4; stroke-dasharray: none; stroke-opacity: 1; display: inline; overflow: visible;" id="path-8" d="M 344.426 164.755 C 344.43 167.535 341.248 169.276 338.699 167.89 C 337.512 167.245 336.781 166.049 336.783 164.755 C 336.779 161.975 339.961 160.234 342.51 161.62 C 343.697 162.266 344.428 163.461 344.426 164.755 Z"/>
        <path style="fill: rgb(0, 0, 0); fill-opacity: 1; fill-rule: evenodd; stroke: none; stroke-width: 3; marker: none; stroke-miterlimit: 4; stroke-dasharray: none; stroke-opacity: 1; display: inline; overflow: visible;" id="path-9" d="M 355.62 164.755 C 355.624 167.534 352.442 169.276 349.893 167.89 C 348.706 167.244 347.976 166.049 347.978 164.755 C 347.973 161.975 351.155 160.234 353.705 161.62 C 354.891 162.265 355.622 163.461 355.62 164.755 Z"/>
      </g>
      <g class="letterY" id="letter17" transform="matrix(0.731169, 0, 0, 0.631901, -95.890396, 162.094986)">
        <rect style="fill: rgb(0, 0, 0); fill-opacity: 1; fill-rule: nonzero; stroke: none; stroke-width: 1; stroke-linecap: butt; stroke-linejoin: miter; marker: none; stroke-miterlimit: 4; stroke-dasharray: none; stroke-dashoffset: 0; stroke-opacity: 1; display: inline; overflow: visible;" id="rect-2" width="22.5" height="7.5" x="457.99487" y="154.97975"/>
        <rect style="fill: rgb(0, 0, 0); fill-opacity: 1; fill-rule: nonzero; stroke: none; stroke-width: 1; stroke-linecap: butt; stroke-linejoin: miter; marker: none; stroke-miterlimit: 4; stroke-dasharray: none; stroke-dashoffset: 0; stroke-opacity: 1; display: inline; overflow: visible;" id="rect-3" width="22.5" height="7.5" x="503.0708" y="154.97975"/>
        <rect y="154.97975" x="533.37433" height="7.5" width="22.5" id="rect-4" style="fill: rgb(0, 0, 0); fill-opacity: 1; fill-rule: nonzero; stroke: none; stroke-width: 1; stroke-linecap: butt; stroke-linejoin: miter; marker: none; stroke-miterlimit: 4; stroke-dasharray: none; stroke-dashoffset: 0; stroke-opacity: 1; display: inline; overflow: visible;"/>
        <path style="fill: rgb(0, 0, 0); fill-opacity: 1; fill-rule: evenodd; stroke: none; stroke-width: 3; marker: none; stroke-miterlimit: 4; stroke-dasharray: none; stroke-opacity: 1; display: inline; overflow: visible;" id="path-10" d="M 246.53081,108.56782 A 2.3257623,2.3257623 0 1 1 241.87929,108.56782 A 2.3257623,2.3257623 0 1 1 246.53081,108.56782 z" transform="matrix(1.6123746,0,0,1.6123746,97.99487,-16.322247)"/>
      </g>
      <g class="letterO" id="letter18" transform="matrix(0.731169, 0, 0, 0.631901, 47.215092, 38.541206)">
        <rect style="fill: rgb(0, 0, 0); fill-opacity: 1; fill-rule: nonzero; stroke: none; stroke-width: 1; stroke-linecap: butt; stroke-linejoin: miter; marker: none; stroke-miterlimit: 4; stroke-dasharray: none; stroke-dashoffset: 0; stroke-opacity: 1; display: inline; overflow: visible;" id="rect-5" width="22.5" height="7.5" x="262.27341" y="363.57541"/>
        <rect style="fill: rgb(0, 0, 0); fill-opacity: 1; fill-rule: nonzero; stroke: none; stroke-width: 1; stroke-linecap: butt; stroke-linejoin: miter; marker: none; stroke-miterlimit: 4; stroke-dasharray: none; stroke-dashoffset: 0; stroke-opacity: 1; display: inline; overflow: visible;" id="rect-6" width="22.5" height="7.5" x="292.27341" y="363.57541"/>
        <rect y="363.57541" x="322.50104" height="7.5" width="22.5" id="rect-7" style="fill: rgb(0, 0, 0); fill-opacity: 1; fill-rule: nonzero; stroke: none; stroke-width: 1; stroke-linecap: butt; stroke-linejoin: miter; marker: none; stroke-miterlimit: 4; stroke-dasharray: none; stroke-dashoffset: 0; stroke-opacity: 1; display: inline; overflow: visible;"/>
      </g>
      <g class="letterU" id="letter19" transform="matrix(0.731169, 0, 0, 0.631901, 118.569534, -27.45302)">
        <rect style="fill: rgb(0, 0, 0); fill-opacity: 1; fill-rule: nonzero; stroke: none; stroke-width: 1; stroke-linecap: butt; stroke-linejoin: miter; marker: none; stroke-miterlimit: 4; stroke-dasharray: none; stroke-dashoffset: 0; stroke-opacity: 1; display: inline; overflow: visible;" id="rect-8" width="22.5" height="7.5" x="287.43991" y="468.01306"/>
        <path style="fill: rgb(0, 0, 0); fill-opacity: 1; fill-rule: evenodd; stroke: none; stroke-width: 3; marker: none; stroke-miterlimit: 4; stroke-dasharray: none; stroke-opacity: 1; display: inline; overflow: visible;" id="path-11" d="M 246.53081,108.56782 A 2.3257623,2.3257623 0 1 1 241.87929,108.56782 A 2.3257623,2.3257623 0 1 1 246.53081,108.56782 z" transform="matrix(1.6123746,0,0,1.6123746,-132.56009,296.71108)"/>
        <path style="fill: rgb(0, 0, 0); fill-opacity: 1; fill-rule: evenodd; stroke: none; stroke-width: 3; marker: none; stroke-miterlimit: 4; stroke-dasharray: none; stroke-opacity: 1; display: inline; overflow: visible;" id="path-12" d="M 246.53081,108.56782 A 2.3257623,2.3257623 0 1 1 241.87929,108.56782 A 2.3257623,2.3257623 0 1 1 246.53081,108.56782 z" transform="matrix(1.6123746,0,0,1.6123746,-117.56009,296.71108)"/>
      </g>
      <g class="letterC" id="letter20" transform="matrix(0.731169, 0, 0, 0.631901, 43.563057, 188.735153)">
        <rect style="fill: rgb(0, 0, 0); fill-opacity: 1; fill-rule: nonzero; stroke: none; stroke-width: 1; stroke-linecap: butt; stroke-linejoin: miter; marker: none; stroke-miterlimit: 4; stroke-dasharray: none; stroke-dashoffset: 0; stroke-opacity: 1; display: inline; overflow: visible;" id="rect-9" width="22.5" height="7.5" x="263.83899" y="140.52052"/>
        <rect style="fill: rgb(0, 0, 0); fill-opacity: 1; fill-rule: nonzero; stroke: none; stroke-width: 1; stroke-linecap: butt; stroke-linejoin: miter; marker: none; stroke-miterlimit: 4; stroke-dasharray: none; stroke-dashoffset: 0; stroke-opacity: 1; display: inline; overflow: visible;" id="rect-10" width="22.5" height="7.5" x="309.40384" y="140.52052"/>
        <path style="fill: rgb(0, 0, 0); fill-opacity: 1; fill-rule: evenodd; stroke: none; stroke-width: 3; marker: none; stroke-miterlimit: 4; stroke-dasharray: none; stroke-opacity: 1; display: inline; overflow: visible;" id="path-13" d="M 246.53081,108.56782 A 2.3257623,2.3257623 0 1 1 241.87929,108.56782 A 2.3257623,2.3257623 0 1 1 246.53081,108.56782 z" transform="matrix(1.6123746,0,0,1.6123746,-95.998034,-30.781469)"/>
        <path style="fill: rgb(0, 0, 0); fill-opacity: 1; fill-rule: evenodd; stroke: none; stroke-width: 3; marker: none; stroke-miterlimit: 4; stroke-dasharray: none; stroke-opacity: 1; display: inline; overflow: visible;" id="path-14" d="M 246.53081,108.56782 A 2.3257623,2.3257623 0 1 1 241.87929,108.56782 A 2.3257623,2.3257623 0 1 1 246.53081,108.56782 z" transform="matrix(1.6286878,0,0,1.6123746,-54.564464,-30.781469)"/>
      </g>
      <g class="letterA" id="letter21" transform="matrix(0.731169, 0, 0, 0.631901, 114.285652, 212.564743)" style="fill:#000000">
        <path style="opacity: 1; fill: rgb(0, 0, 0); fill-opacity: 1; fill-rule: evenodd; stroke: none; stroke-width: 3; marker: none; stroke-miterlimit: 4; stroke-dasharray: none; stroke-opacity: 1; display: inline; overflow: visible;" id="path-15" d="M 246.53081,108.56782 A 2.3257623,2.3257623 0 1 1 241.87929,108.56782 A 2.3257623,2.3257623 0 1 1 246.53081,108.56782 z" transform="matrix(1.6123746,0,0,1.6123746,-126.70119,-68.492412)"/>
        <rect style="opacity: 1; fill: rgb(0, 0, 0); fill-opacity: 1; fill-rule: nonzero; stroke: none; stroke-width: 1; stroke-linecap: butt; stroke-linejoin: miter; marker: none; stroke-miterlimit: 4; stroke-dasharray: none; stroke-dashoffset: 0; stroke-opacity: 1; display: inline; overflow: visible;" id="rect-11" width="22.5" height="7.5" x="278.29883" y="102.80958"/>
      </g>
      <g class="letterN" id="letter22" transform="matrix(0.731169, 0, 0, 0.631901, 46.124779, 69.365608)">
        <g id="g-8">
          <rect y="342.93527" x="260.2532" height="7.5" width="22.5" id="rect-12" style="fill: rgb(0, 0, 0); fill-opacity: 1; fill-rule: nonzero; stroke: none; stroke-width: 1; stroke-linecap: butt; stroke-linejoin: miter; marker: none; stroke-miterlimit: 4; stroke-dasharray: none; stroke-dashoffset: 0; stroke-opacity: 1; display: inline; overflow: visible;"/>
          <path transform="matrix(1.6123746,0,0,1.6123746,-99.746807,171.63329)" d="M 246.53081,108.56782 A 2.3257623,2.3257623 0 1 1 241.87929,108.56782 A 2.3257623,2.3257623 0 1 1 246.53081,108.56782 z" id="path-16" style="fill: rgb(0, 0, 0); fill-opacity: 1; fill-rule: evenodd; stroke: none; stroke-width: 3; marker: none; stroke-miterlimit: 4; stroke-dasharray: none; stroke-opacity: 1; display: inline; overflow: visible;"/>
        </g>
      </g>
      <g class="letterC" id="letter23" transform="matrix(0.731169, 0, 0, 0.631901, 80.535995, 197.271698)">
        <rect style="fill: rgb(0, 0, 0); fill-opacity: 1; fill-rule: nonzero; stroke: none; stroke-width: 1; stroke-linecap: butt; stroke-linejoin: miter; marker: none; stroke-miterlimit: 4; stroke-dasharray: none; stroke-dashoffset: 0; stroke-opacity: 1; display: inline; overflow: visible;" id="rect-13" width="22.5" height="7.5" x="263.83899" y="140.52052"/>
        <rect style="fill: rgb(0, 0, 0); fill-opacity: 1; fill-rule: nonzero; stroke: none; stroke-width: 1; stroke-linecap: butt; stroke-linejoin: miter; marker: none; stroke-miterlimit: 4; stroke-dasharray: none; stroke-dashoffset: 0; stroke-opacity: 1; display: inline; overflow: visible;" id="rect-14" width="22.5" height="7.5" x="309.40384" y="140.52052"/>
        <path style="fill: rgb(0, 0, 0); fill-opacity: 1; fill-rule: evenodd; stroke: none; stroke-width: 3; marker: none; stroke-miterlimit: 4; stroke-dasharray: none; stroke-opacity: 1; display: inline; overflow: visible;" id="path-17" d="M 246.53081,108.56782 A 2.3257623,2.3257623 0 1 1 241.87929,108.56782 A 2.3257623,2.3257623 0 1 1 246.53081,108.56782 z" transform="matrix(1.6123746,0,0,1.6123746,-95.998034,-30.781469)"/>
        <path style="fill: rgb(0, 0, 0); fill-opacity: 1; fill-rule: evenodd; stroke: none; stroke-width: 3; marker: none; stroke-miterlimit: 4; stroke-dasharray: none; stroke-opacity: 1; display: inline; overflow: visible;" id="path-18" d="M 246.53081,108.56782 A 2.3257623,2.3257623 0 1 1 241.87929,108.56782 A 2.3257623,2.3257623 0 1 1 246.53081,108.56782 z" transform="matrix(1.6286878,0,0,1.6123746,-54.564464,-30.781469)"/>
      </g>
      <g class="letterO" id="letter24" transform="matrix(0.731169, 0, 0, 0.631901, 47.215088, 65.789467)">
        <rect style="fill: rgb(0, 0, 0); fill-opacity: 1; fill-rule: nonzero; stroke: none; stroke-width: 1; stroke-linecap: butt; stroke-linejoin: miter; marker: none; stroke-miterlimit: 4; stroke-dasharray: none; stroke-dashoffset: 0; stroke-opacity: 1; display: inline; overflow: visible;" id="rect-15" width="22.5" height="7.5" x="262.27341" y="363.57541"/>
        <rect style="fill: rgb(0, 0, 0); fill-opacity: 1; fill-rule: nonzero; stroke: none; stroke-width: 1; stroke-linecap: butt; stroke-linejoin: miter; marker: none; stroke-miterlimit: 4; stroke-dasharray: none; stroke-dashoffset: 0; stroke-opacity: 1; display: inline; overflow: visible;" id="rect-16" width="22.5" height="7.5" x="292.27341" y="363.57541"/>
        <rect y="363.57541" x="322.50104" height="7.5" width="22.5" id="rect-17" style="fill: rgb(0, 0, 0); fill-opacity: 1; fill-rule: nonzero; stroke: none; stroke-width: 1; stroke-linecap: butt; stroke-linejoin: miter; marker: none; stroke-miterlimit: 4; stroke-dasharray: none; stroke-dashoffset: 0; stroke-opacity: 1; display: inline; overflow: visible;"/>
      </g>
      <g class="letterD" id="letter25" transform="matrix(0.731169, 0, 0, 0.631901, 111.563782, 195.923691)">
        <rect style="fill: rgb(0, 0, 0); fill-opacity: 1; fill-rule: nonzero; stroke: none; stroke-width: 1; stroke-linecap: butt; stroke-linejoin: miter; marker: none; stroke-miterlimit: 4; stroke-dasharray: none; stroke-dashoffset: 0; stroke-opacity: 1; display: inline; overflow: visible;" id="rect-18" width="22.5" height="7.5" x="265.30594" y="157.63454"/>
        <path style="fill: rgb(0, 0, 0); fill-opacity: 1; fill-rule: evenodd; stroke: none; stroke-width: 3; marker: none; stroke-miterlimit: 4; stroke-dasharray: none; stroke-opacity: 1; display: inline; overflow: visible;" id="path-19" d="M 246.53081,108.56782 A 2.3257623,2.3257623 0 1 1 241.87929,108.56782 A 2.3257623,2.3257623 0 1 1 246.53081,108.56782 z" transform="matrix(1.6123746,0,0,1.6123746,-96.32401,-13.667455)"/>
        <path style="fill: rgb(0, 0, 0); fill-opacity: 1; fill-rule: evenodd; stroke: none; stroke-width: 3; marker: none; stroke-miterlimit: 4; stroke-dasharray: none; stroke-opacity: 1; display: inline; overflow: visible;" id="path-20" d="M 246.53081,108.56782 A 2.3257623,2.3257623 0 1 1 241.87929,108.56782 A 2.3257623,2.3257623 0 1 1 246.53081,108.56782 z" transform="matrix(1.6286878,0,0,1.6123746,-85.19396,-13.667455)"/>
      </g>
      <g class="letterE" id="letter26" transform="matrix(0.717559, 0, 0, 0.656245, 126.344215, 199.025314)">
        <path style="fill: rgb(0, 0, 0); fill-opacity: 1; fill-rule: evenodd; stroke: none; stroke-width: 3; marker: none; stroke-miterlimit: 4; stroke-dasharray: none; stroke-opacity: 1; display: inline; overflow: visible;" id="path-24" d="M 314.83 151.023 C 314.835 153.803 311.653 155.545 309.104 154.158 C 307.917 153.513 307.186 152.317 307.188 151.023 C 307.184 148.244 310.366 146.502 312.916 147.889 C 314.102 148.534 314.833 149.73 314.83 151.023 Z"/>
      </g>
    </g>
  </g>
  <g id="symbols" transform="matrix(1, 0, 0, 1, -164.683685, -62.309231)">
    <g id="radioactive" transform="matrix(0.102802, 0, 0, 0.100404, 274.75293, 52.828594)">
      <rect id="rect12402" style="stroke:#ffffff;stroke-linecap:round;stroke-width:0.3;fill:#ffff00" height="279.7" width="279.7" y="290.61" x="360.09"/>
      <path id="path11669-6-1" style="stroke:#000000;stroke-linecap:round;stroke-width:0.3;fill:#000000" d="m562.38 313.97-43.65 75.65c11.107 6.4726 18.563 18.499 18.563 32.281 0 0.0208 0.00003 0.0417 0 0.0625l87.504-0.0312c-0.0839-43.055-22.44-84.889-62.409-107.97zm-124.97 0.0625c-18.327 10.59-34.221 25.975-45.565 45.625-11.395 19.74-16.797 41.298-16.751 62.562l87.504 0.0312c-0.001-0.11401 0-0.2295 0-0.34375 0-13.742 7.416-25.733 18.47-32.219l-43.65-75.66zm43.971 140.31-43.783 75.875c39.919 23.039 87.241 21.543 124.54 0.15625l-43.815-75.938c-5.4246 3.0702-11.698 4.8438-18.376 4.8438-6.7535 0-13.097-1.8027-18.563-4.9375z"/>
      <path id="path11669" style="stroke:#000000;stroke-linecap:round;stroke-width:.36402;fill:#000000" d="m377.09 454.76a30.153 30.153 0 1 1 -60.306 0 30.153 30.153 0 1 1 60.306 0z" transform="matrix(.82414 0 0 .82414 214.01 47.577)"/>
    </g>
    <g id="bomb" transform="matrix(0.186271, 0, 0, 0.199408, 380.557343, 136.554855)">
      <path id="path3079" style="fill-rule:evenodd;stroke:#000000;stroke-width:1pt;fill:#ffff00" d="m111.9 20.93 5.09-13.417 2.15 13.686 8.59-10.197-1.34 10.465 19.85-8.587-14.49 12.88 15.83 11.002-17.17-4.83 13.95 24.15-16.63-19.857 2.14 30.054-7.51-26.029-13.68 13.954 8.85-18.515-15.03 8.05 9.4-9.392-17.714 4.83 9.394-8.318-13.687-3.22 16.367-3.22-2.41-12.612 8.05 9.123z"/>
      <path id="path3080" style="fill-rule:evenodd;stroke:#000000;stroke-width:1pt;fill:#ff3f00" d="m112.97 24.955-6.17-6.44 3.75 8.319-13.144 1.073 12.344 2.415-6.44 4.562 12.61-2.952-2.41 4.025 7.51-3.757-2.95 8.319 5.1-4.025 3.48 9.123-1.61-12.343 5.91 2.683-5.1-6.172 8.59 0.537-6.71-2.952 4.56-5.098-8.86 1.342 0.54-5.099-5.63 7.782-2.15-10.197-3.22 8.855z"/>
      <g id="g2445" transform="translate(-7.2451,1.8784)">
        <path id="path1817" style="fill-rule:evenodd;stroke:#000000;stroke-width:1.25;fill:#a6a667" d="m92.954 8.736c-6.759 0.237-12.839 5.307-16.2 8.49-3.399 3.247-3.558 9.307-3.047 13.291 0.511 3.985 1.844 7.063 1.844 7.063l5.718-2.5s-0.986-2.314-1.375-5.344c-0.385-3.006-0.077-6.255 1.907-8.531 2.281-2.812 8.951-6.776 15.955-5.672 4.734 1.18 7.534 7.962 11.484 10.578 3.95 2.617 9.29 3.879 16.19 2.5 3.06-0.909 2.88-6.5-1.22-6.125-5.7 1.139-8.8 0.228-11.5-1.562-2.71-1.79-5-4.85-7.78-8.188l-0.07-0.031c-2.49-2.568-7.286-4.016-11.906-3.969z"/>
        <path id="path2440" style="stroke:#000000;stroke-width:1pt;fill:none" d="m125.22 22.896s-6.73 6.571-11.71 5.287"/>
        <path id="path2441" style="stroke:#000000;stroke-width:1pt;fill:none" d="m112.75 20.933c-1.35 1.586-7.85-0.529-10.72-2.644"/>
        <path id="path2442" style="stroke:#000000;stroke-width:1pt;fill:none" d="m95.611 8.7737c0.302 0.9818-3.474 6.9483-6.797 7.7783"/>
        <path id="path2443" style="stroke:#000000;stroke-width:1pt;fill:none" d="m82.168 12.927s1.737 4.834-0.604 8.534"/>
        <path id="path2444" style="stroke:#000000;stroke-width:1pt;fill:none" d="m73.407 26.219c2.115-0.075 6.949 4.607 7.175 6.646"/>
      </g>
      <path id="path1193" style="fill-rule:evenodd;fill:#000000" d="m61.645 35.724c-0.574 2.542-0.156 11.394-7.75 18.824-21.511 6.077-37.188 23.396-37.188 44.044 0 25.688 24.091 46.508 53.75 46.508 29.663 0 53.723-20.82 53.723-46.508 0-21.697-17.26-39.795-40.473-44.936-4.038-5.604-7.243-13.383-6.25-18.27-1.799-2.478-10.417-4.441-15.812 0.338z"/>
      <path id="path2452" style="fill-rule:evenodd;fill:url(#radialGradient3078)" d="m103.58 124.91c0 11.337-13.636 20.528-30.456 20.528s-30.456-9.1906-30.456-20.528 13.636-20.528 30.456-20.528 30.456 9.1906 30.456 20.528z" transform="matrix(1.3348,0,0,1.1451,-27.973,-22.278)"/>
    </g>
    <path id="questionMark" style="fill: rgb(0, 0, 0);" d="M 183.166 95.235 L 183.166 91.484 L 189.956 91.484 L 189.956 98.986 L 183.166 98.986 L 183.166 95.235 Z M 183.166 87.599 C 183.166 87.182 183.196 86.596 183.233 86.297 C 183.314 85.635 183.605 84.637 183.863 84.133 C 184.329 83.224 185.271 82.076 186.904 80.424 C 188.375 78.936 189.073 78.04 189.397 77.221 C 189.577 76.769 189.707 76.145 189.707 75.739 C 189.707 74.221 188.887 73.118 187.465 72.721 C 187.028 72.6 185.47 72.596 184.879 72.715 C 183.35 73.022 181.452 73.871 179.809 74.981 L 179.24 75.366 L 179.256 72.056 L 179.272 68.746 L 179.74 68.578 C 182.622 67.547 184.46 67.137 186.562 67.056 C 189.5 66.943 191.983 67.557 193.688 68.819 C 195.619 70.249 196.597 72.618 196.478 75.577 C 196.366 78.386 195.407 80.242 192.647 82.999 C 190.361 85.283 190.033 85.835 189.973 87.507 L 189.942 88.358 L 183.167 88.358 L 183.167 87.599 Z"/>
    <path id="redX" d="M 397.703 132.183 H 434.423 V 202.947 H 507.861 V 238.33 H 434.423 V 309.095 H 397.703 V 238.33 H 324.265 V 202.947 H 397.703 Z" style="fill: rgb(245, 0, 0);" transform="matrix(0.719339, 0.694659, -0.694659, 0.719339, 182.010908, -291.515384)" bx:shape="cross 324.265 132.183 183.596 176.912 35.383 36.72 0.5 1@c46ed447"/>
    <g id="angryFace" transform="matrix(0.271866, 0, 0, 0.280022, 268.435211, -88.637466)">
      <g id="g13923" transform="matrix(1.25 0 0 -1.25 173.18 858.47)">
        <path id="path13925" style="stroke:#292929;stroke-width:4.809;fill:none" d="m0 0c0-18.15 14.71-32.86 32.856-32.86 18.15 0 32.861 14.71 32.861 32.86 0 18.147-14.711 32.856-32.861 32.856-18.146 0-32.856-14.709-32.856-32.856z"/>
      </g>
      <g id="g13927" transform="matrix(1.25 0 0 -1.25 195.01 855.35)">
        <path id="path13929" style="fill:#292929" d="m0 0c0-2.618 2.128-4.746 4.745-4.746 2.625 0 4.752 2.128 4.752 4.746 0 2.621-2.127 4.749-4.752 4.749-2.617 0-4.745-2.128-4.745-4.749"/>
      </g>
      <g id="g13931" transform="matrix(1.25 0 0 -1.25 221.9 853.77)">
        <path id="path13933" style="fill:#292929" d="m0 0c0-1.922 1.561-3.487 3.486-3.487 1.922 0 3.484 1.565 3.484 3.487 0 1.925-1.562 3.49-3.484 3.49-1.925 0-3.486-1.565-3.486-3.49"/>
      </g>
      <g id="g13935" transform="matrix(1.25 0 0 -1.25 208.37 849.38)">
        <path id="path13937" style="fill:#292929" d="m0 0c-0.553-0.323-6.014 5.412-12.324 7.965-6.313 2.554 0.375 7.889 2.703 5.559 2.33-2.33 12.139-12.042 9.621-13.524"/>
      </g>
      <g id="g13939" transform="matrix(1.25 0 0 -1.25 220.33 848.61)">
        <path id="path13941" style="fill:#292929" d="m0 0c0.391-0.493 7.527 2.944 14.34 3.099 6.806 0.165 2.428 7.52-0.569 6.16-3.005-1.356-15.614-6.982-13.771-9.259"/>
      </g>
    </g>
    <path id="greenCheck" d="M 310.795 190.744 L 306.87 185.575 L 300.434 178.196 L 293.07 172.318 L 284.749 167.04 L 281.12 165.134 L 283.392 154.196 L 285.665 142.881 L 285.887 142.465 L 288.856 143.847 L 291.604 145.229 L 295.872 149.529 L 300.141 153.829 L 302.079 156.945 L 304.122 160.061 L 318.412 145.105 L 336.18 128.318 L 349.23 118.06 L 366.088 106.422 L 374.457 116.878 L 383.931 128.878 L 385.223 130.638 L 376.095 135.93 L 366.972 141.052 L 357.368 147.791 L 333.286 166.538 L 326.727 172.451 L 321.213 178.683 L 313.476 187.954 L 311.104 190.997 Z" style="fill: rgb(33, 176, 75); visibility: hidden;"/>
    <path id="fire" style="fill-rule: evenodd; stroke: rgb(0, 0, 0); stroke-width: 0.51174px; fill: rgb(0, 0, 0);" d="M 327.117 193.425 C 323.463 196.543 327.747 201.167 325.92 201.531 C 325.92 201.531 323.652 198.569 321.068 198.881 C 325.095 203.309 322.759 206.084 322.77 206.053 C 320.25 203.454 317.006 203.399 317.73 203.818 C 320.753 205.57 319.809 210.262 319.809 210.262 C 319.809 210.262 316.595 207.975 315.083 209.171 C 319.19 210.89 317.415 212.86 317.352 215.251 C 317.213 219.998 320.819 222.128 321.471 222.474 L 319.745 222.474 L 319.745 223.565 L 336.063 223.565 L 336.063 222.474 L 334.045 222.474 C 335.343 222.013 340.279 219.932 340.662 214.835 C 340.662 214.835 340.786 211.868 339.591 210.677 C 339.276 211.769 338.457 211.872 338.457 211.872 C 337.953 211.924 339.15 209.423 339.15 208.339 C 339.15 205.844 337.008 204.909 337.008 204.909 C 337.008 204.909 337.512 207.663 335.622 208.547 C 335.243 207.899 336.716 200.81 331.338 199.401 C 332.724 201.739 332.409 202.623 332.409 202.623 C 332.409 202.623 332.274 203.806 332.22 203.506 C 331.808 201.207 329.322 198.985 329.322 198.985 C 329.322 198.985 327.941 197.998 327.117 193.425 Z M 330.834 210.626 C 331.59 211.509 330.834 215.926 330.834 215.926 C 332.094 215.614 333.59 213.577 333.921 213.275 C 334.336 212.898 334.11 215.822 332.598 217.07 C 334.229 216.763 335.055 215.666 335.055 215.666 C 335.055 215.666 334.457 220.535 327.495 222.058 C 326.235 222.681 319.589 219.274 323.211 214.003 C 324.408 218.628 326.487 218.628 326.487 218.628 C 326.487 218.628 324.912 214.471 326.298 213.224 C 326.298 213.224 327.04 215.438 328.503 215.614 C 329.385 212.081 330.834 210.626 330.834 210.626 Z"/>
    <path id="fist" style="fill: rgb(0, 0, 0);" d="M 276.315 168.643 C 276.05 167.038 276.326 165.311 275.754 163.762 C 275.01 162.699 273.486 162.069 272.313 162.82 C 271.06 163.531 271.882 165.443 271.454 166.659 C 271.305 167.421 271.816 168.58 270.67 168.221 C 269.784 167.785 270.586 166.041 270.387 165.063 C 270.579 163.82 270.39 161.758 268.707 162.857 C 267.668 163.484 266.251 163.692 265.6 164.823 C 265.027 165.809 265.935 168.269 264.254 168.027 C 263.432 168.208 263.153 167.777 263.315 167.05 C 263.303 165.445 264.096 163.664 263.078 162.216 C 261.593 159.297 260.739 156.049 260.589 152.763 C 260.052 151.67 259.907 150.385 260.125 149.166 C 260.334 147.958 261.366 147.502 262.254 147.086 C 262.544 145.951 262.849 144.719 263.813 143.959 C 265.059 142.792 266.755 142.382 268.168 141.51 C 268.685 140.029 270.202 139.382 271.648 139.643 C 272.841 139.87 273.891 140.139 275.114 139.67 C 276.591 139.649 277.841 140.676 278.553 141.933 C 279.784 142.143 280.949 143.042 281.386 144.274 C 281.928 145.238 282.315 146.18 282.691 147.219 C 283.081 148.361 284.35 149.422 283.78 150.721 C 283.248 152.324 282.489 153.823 281.701 155.3 C 281.19 156.43 281.033 157.689 280.37 158.715 C 279.741 160.17 278.086 160.652 277.114 161.799 C 276.579 162.943 277.204 164.229 277.137 165.443 C 277.212 166.533 277.239 167.626 277.23 168.718 C 276.925 168.707 276.609 168.749 276.315 168.643 Z M 268.511 161.159 C 269.917 160.946 271.132 159.85 271.357 158.392 C 271.773 156.452 271.315 154.2 269.911 152.778 C 268.922 151.91 267.48 151.273 266.226 151.966 C 265.272 152.202 264.344 154.286 263.748 152.481 C 263.694 151.829 262.972 150.661 263.673 150.257 C 264.602 149.847 265.495 149.173 266.521 149.147 C 267.078 150.075 267.752 151.219 268.961 151.159 C 270.102 151.111 270.258 150.347 269.539 149.574 C 268.776 148.66 268.402 147.219 267.243 146.791 C 265.833 146.965 264.582 147.836 263.358 148.532 C 262.343 149.073 260.472 149.476 261.795 150.923 C 262.08 152.129 262.591 153.252 263.012 154.408 C 263.2 156.104 263.066 157.967 264.165 159.394 C 264.879 160.611 266.342 161.235 267.651 161.365 C 267.936 161.288 268.223 161.222 268.511 161.159 Z M 277.171 158.008 C 279.707 156.895 280.699 154.036 281.787 151.674 C 282.532 150.515 282.118 149.229 281.479 148.149 C 280.742 146.811 280.21 145.365 279.558 143.99 C 278.917 142.763 277.71 143.177 276.747 143.759 C 275.429 144.422 274.105 145.107 272.817 145.773 C 272.916 147.149 274.817 148.048 276.123 147.472 C 277.125 147.4 278.072 146.341 278.979 146.622 C 279.568 147.75 280.066 148.921 280.606 150.075 C 280.843 151.503 279.254 149.727 278.768 149.52 C 277.585 148.775 276.121 148.226 274.761 148.812 C 273.688 149.152 272.521 149.884 272.191 150.985 C 271.373 152.165 271.831 153.72 272.236 154.968 C 272.985 156.362 274.124 157.748 275.667 158.213 C 276.175 158.337 276.702 158.217 277.171 158.008 Z M 271.374 149.295 C 272.264 149.326 272.945 148.615 272.177 147.798 C 271.445 146.056 270.842 144.213 269.754 142.663 C 268.469 142.522 267.195 143.661 265.942 144.07 C 264.99 144.205 263.646 145.872 264.267 146.401 C 265.455 145.902 266.628 145.387 267.872 145.057 C 269.005 145.818 269.109 147.725 270.084 148.794 C 270.308 149.159 271 149.594 271.374 149.295 Z M 272.623 144.839 C 274.103 144.499 272.731 142.461 272.78 141.359 C 272.103 140.519 269.768 141.259 270.693 142.494 C 271.253 143.128 271.687 145.125 272.623 144.839 Z M 275.81 143.3 C 276.028 143.062 277.044 142.966 276.536 142.598 C 275.884 141.856 275.108 140.994 274.034 141.162 C 274.122 142.048 274.167 142.971 274.504 143.796 C 274.945 143.907 275.404 143.435 275.81 143.3 Z"/>
  </g>
  <g id="bigDumbWebDev" transform="matrix(1, 0, 0, 1, -211.500153, -56.06712)">
    <path id="hair" d="M 298.07 144.443 C 298.07 144.443 306.579 122.556 307.803 120.974 C 309.139 119.249 314.154 116.783 312.346 116.783 C 306.814 116.783 297.435 115.927 293.527 120.974 C 291.804 123.202 287.26 130.744 288.985 128.518 C 289.556 127.78 300.665 101.693 300.665 101.693 C 300.665 101.693 279.805 109.6 277.304 111.752 C 275.993 112.883 272.114 119.302 272.114 120.134 C 272.114 121.292 271.465 124.647 271.465 123.489 C 271.465 117.927 275.913 104.451 277.954 99.18 C 279.011 96.45 284.051 91.635 281.848 91.635 C 271.024 91.635 265.418 106.153 259.136 114.268 C 259.04 114.392 257.189 125.164 257.189 125.164 C 257.189 125.164 257.748 116.521 257.838 115.944 C 259.017 108.329 263.029 91.637 260.434 93.313 C 255.158 96.72 244.211 109.588 244.211 117.619 C 244.211 119.848 242.913 124.739 242.913 126.002 C 242.913 127.708 242.264 132.735 242.264 131.033 C 242.264 123.842 242.349 108.178 244.86 101.693 C 245.723 99.466 251.468 88.625 248.104 90.798 C 237.196 97.843 235.257 109.575 231.881 122.65 C 231.268 125.029 231.233 133.478 231.233 136.06 C 231.233 138.296 231.233 145.002 231.233 142.768 C 231.233 134.175 229.78 118.856 232.53 111.752 C 234.105 107.688 237.547 95.213 235.127 98.342 C 226.593 109.364 224.094 124.407 224.094 140.253 C 224.094 147.369 228.126 162.554 224.744 160.37" style="stroke: rgb(0, 0, 0);"/>
    <path id="body" d="M 600 380 A 54 54 0 1 1 600 272 L 600 326 Z" transform="matrix(0, 2.392844, -0.90743, 0, 559.55542, -1131.71106)" style="fill: rgb(95, 98, 60);" bx:shape="pie 600 326 0 54 180 360 1@f4435228"/>
    <ellipse id="face" transform="matrix(-0.525494, 0.850798, -0.850797, -0.525493, 478.179987, 103.321289)" cx="165.889" cy="149.226" rx="39.816" ry="40.706" style="fill: rgb(208, 188, 142);"/>
  </g>
</svg>