<?xml version="1.0" encoding="UTF-8" standalone="no"?>
<!-- Generator: Adobe Illustrator 18.1.0, SVG Export Plug-In . SVG Version: 6.00 Build 0)  -->

<svg
   xmlns:dc="http://purl.org/dc/elements/1.1/"
   xmlns:cc="http://creativecommons.org/ns#"
   xmlns:rdf="http://www.w3.org/1999/02/22-rdf-syntax-ns#"
   xmlns:svg="http://www.w3.org/2000/svg"
   xmlns="http://www.w3.org/2000/svg"
   xmlns:sodipodi="http://sodipodi.sourceforge.net/DTD/sodipodi-0.dtd"
   xmlns:inkscape="http://www.inkscape.org/namespaces/inkscape"
   version="1.0"
   id="Layer_1"
   viewBox="0 0 35.0035 41.530584"
   width="350"
   height="415.26431"
   preserveAspectRatio="xMidYMin"
   sodipodi:docname="dad_jokes.svg"
   inkscape:version="0.92.4 (5da689c313, 2019-01-14)">
  <metadata
     id="metadata23">
    <rdf:RDF>
      <cc:Work
         rdf:about="">
        <dc:format>image/svg+xml</dc:format>
        <dc:type
           rdf:resource="http://purl.org/dc/dcmitype/StillImage" />
        <dc:title></dc:title>
      </cc:Work>
    </rdf:RDF>
  </metadata>
  <defs
     id="defs21" />
  <sodipodi:namedview
     pagecolor="#ffffff"
     bordercolor="#666666"
     borderopacity="1"
     objecttolerance="10"
     gridtolerance="10"
     guidetolerance="10"
     inkscape:pageopacity="0"
     inkscape:pageshadow="2"
     inkscape:window-width="3840"
     inkscape:window-height="2035"
     id="namedview19"
     showgrid="false"
     scale-x="0.10001"
     viewbox-width="400"
     fit-margin-top="0"
     fit-margin-left="0"
     fit-margin-right="0"
     fit-margin-bottom="0"
     viewbox-x="0"
     viewbox-y="5"
     inkscape:zoom="2.36"
     inkscape:cx="175.43629"
     inkscape:cy="224.98664"
     inkscape:window-x="-13"
     inkscape:window-y="-13"
     inkscape:window-maximized="1"
     inkscape:current-layer="Layer_1" />
  <path
     d="m 35.0035,23.220172 c 0,-1.559563 -1.155231,-2.888077 -2.657032,-3.17689 l 0.288814,-5.776154 c 0,-8.4909482 -7.046921,-13.7472727 -15.595618,-13.7472727 -8.4909525,0 -14.7292021,5.2563245 -14.7292021,13.7472727 l 0.3465685,5.776154 C 1.1552303,20.332095 0,21.602847 0,23.162406 c 0,1.675082 1.3285148,3.061365 3.0036007,3.176883 l 0.057758,0.750905 c 0,7.971091 6.4693152,14.440388 14.4403913,14.440388 7.971087,0 14.440377,-6.469297 14.440377,-14.440388 l 0.0577,-0.693137 c 1.675082,-0.115524 3.003586,-1.501804 3.003589,-3.176885 z"
     id="path2"
     inkscape:connector-curvature="0"
     style="fill:#edc0a2;stroke-width:0.57761532" />
  <path
     d="m 16.230994,40.028781 c -3.292404,0 -6.3537676,-0.981947 -8.9530379,-2.714797 2.5992714,2.59927 6.2382459,4.216599 10.2237939,4.216599 7.97109,0 14.440382,-6.469297 14.440382,-14.440387 l 0.0577,-0.750906 c -1.097456,7.740051 -7.74003,13.689491 -15.768884,13.689491 z"
     id="path4"
     inkscape:connector-curvature="0"
     style="fill:#e5ab83;stroke-width:0.57761532" />
  <path
     d="m 10.223791,22.989124 v 0 c 0,0 0,0 0,0 0,0.808675 -0.635376,1.444054 -1.4440397,1.444054 -0.8086568,0 -1.4440342,-0.635379 -1.4440342,-1.444054 0,0 0,0 0,0 v 0 -2.021658 c 0.057756,-0.750899 0.6931383,-1.328509 1.4440342,-1.328509 0.7509169,0 1.3862807,0.57761 1.4440427,1.328509 z m 17.386227,-2.079419 c -0.05777,-0.750901 -0.693139,-1.328506 -1.44404,-1.328506 -0.750893,0 -1.386274,0.577605 -1.444033,1.328506 v 2.021659 0 c 0,0 0,0 0,0 0,0.808647 0.635373,1.444025 1.444033,1.444025 0.808672,0 1.44404,-0.635378 1.44404,-1.444025 0,0 0,0 0,0 v 0 z"
     id="path6"
     inkscape:connector-curvature="0"
     style="fill:#2b3b47;stroke-width:0.57761532" />
  <path
     d="m 8.4909489,21.025226 c 0,-0.173281 -0.1732858,-0.346564 -0.3465701,-0.346564 -0.1732843,0 -0.3465685,0.173283 -0.3465685,0.346564 v 0 0.519857 0 0 c 0,0.173288 0.1732842,0.346567 0.3465685,0.346567 0.1732843,0 0.3465701,-0.173279 0.3465701,-0.346567 v 0 0 z"
     id="path8"
     inkscape:connector-curvature="0"
     style="opacity:0.95999995;fill:#959da3;stroke-width:0.57761532" />
  <path
     d="m 25.992711,21.025226 c 0,-0.173281 -0.173316,-0.346564 -0.346584,-0.346564 -0.173287,0 -0.346564,0.173283 -0.346564,0.346564 v 0 0.519857 0 0 c 0,0.173288 0.173277,0.346567 0.346564,0.346567 0.173268,0 0.346584,-0.173279 0.346584,-0.346567 v 0 0 z"
     id="path10"
     inkscape:connector-curvature="0"
     style="opacity:0.95999995;fill:#959da3;stroke-width:0.57761532" />
  <path
     d="m 20.216545,0.057762 v 0 L 15.595615,0 V 0 C 5.429586,0.057762 2.1371775,6.8158863 2.1371775,13.169657 c 0,6.353784 0,4.505402 0,7.335719 0,1.155236 1.0974692,0.0577 1.2707541,-1.155231 0.2888078,-1.675086 0.1732847,-7.913334 1.5595609,-10.2815537 0.7509011,-1.270766 2.4259868,0.8664227 3.7544994,1.9061197 2.5992691,2.194946 17.1551901,4.794214 15.9421851,3.29242 -0.288802,-0.346568 -0.57761,-0.693138 -0.866418,-1.097474 4.967493,1.963891 7.10467,4.90973 7.509,5.718396 0.750902,1.386281 1.559563,3.0036 1.559563,1.617323 0,-3.23465 0,-1.097463 0,-6.931383 0,-5.5451199 -3.176883,-13.0541354 -12.649777,-13.5162287 z"
     id="path12"
     inkscape:connector-curvature="0"
     style="fill:#332a23;stroke-width:0.57761532" />
  <path
     d="m 17.50175,28.59199 c 0,0 0,0 0,0 -0.981946,0 -1.848375,-0.462087 -2.368224,-1.328512 -0.173282,-0.288812 -0.115523,-0.635372 0.173286,-0.808663 0.288803,-0.173286 0.635371,-0.115523 0.808663,0.173291 0.288807,0.462088 0.808658,0.750892 1.386275,0.750892 0,0 0,0 0,0 0.577613,0 1.097466,-0.288804 1.386273,-0.750892 0.173291,-0.288817 0.519858,-0.346577 0.808664,-0.173291 0.288809,0.173291 0.346566,0.519851 0.173287,0.808663 -0.519853,0.808664 -1.38628,1.328512 -2.368224,1.328512 z m 2.714795,5.776158 c 0.288807,-0.231047 0.346567,-0.577617 0.115523,-0.866414 -0.23105,-0.288823 -0.577627,-0.346562 -0.866435,-0.115524 -1.212986,0.924176 -2.772548,0.924176 -3.985545,0 -0.288804,-0.231042 -0.635371,-0.173302 -0.866421,0.115524 -0.231049,0.288797 -0.173288,0.635367 0.115523,0.866414 0.808661,0.635374 1.790605,0.924187 2.772551,0.924187 0.981943,0 1.906131,-0.288813 2.714794,-0.924187 z"
     id="path14"
     inkscape:connector-curvature="0"
     style="fill:#e5ab83;stroke-width:0.57761532" />
  <path
     d="m 10.397072,18.425962 c 0,0 -0.05776,0 -0.17328,-0.0577 -0.115521,0 -0.2310488,-0.0578 -0.4043303,-0.0578 -0.3465712,-0.0577 -0.8086683,-0.115523 -1.2707513,-0.115523 -0.4620928,0 -0.8664241,0.05778 -1.1552313,0.173283 -0.057751,0 -0.1155233,0.05769 -0.1732857,0.05769 -0.057756,0 -0.057756,0.05783 -0.1155222,0.05783 -0.057755,0.0577 -0.057755,0.0577 -0.057755,0.0577 L 6.8736295,18.657031 C 6.584821,18.830318 6.18049,18.772554 6.0072057,18.425988 5.8339216,18.137183 5.8916824,17.848366 6.1227279,17.617317 c 0,0 0.057756,-0.05779 0.1732857,-0.173279 0.057758,-0.0577 0.1155233,-0.115523 0.2310463,-0.173287 0.1155234,-0.05776 0.1732842,-0.115524 0.2888073,-0.173283 0.4620936,-0.231041 1.0397097,-0.346568 1.6173239,-0.46209 0.5776072,-0.05774 1.0974819,-0.05774 1.5017936,-0.05774 0.2310523,0 0.4043413,0 0.5198673,0.05774 0.115521,0 0.173277,0 0.173277,0 0.519853,0.05773 0.866428,0.46209 0.80866,0.981939 -0.05776,0.519866 -0.462097,0.86643 -0.981938,0.808671 0,0.05777 0,0 -0.05774,0 z m 13.805016,-1.732851 c -0.462093,0.115523 -0.80867,0.577613 -0.693142,1.039709 0.115523,0.462093 0.577621,0.808663 1.039704,0.693142 v 0 c 0,0 0.05773,0 0.173295,-0.0577 0.115524,0 0.231045,-0.0578 0.40433,-0.0578 0.346565,-0.05771 0.808647,-0.115523 1.270759,-0.115523 0.462097,0 0.866415,0.05778 1.155224,0.173283 0.05777,0 0.115523,0.05769 0.173284,0.05769 0.05776,0 0.05776,0.05783 0.115523,0.05783 0.05773,0.05767 0.05773,0.05767 0.05773,0.05767 l 0.173286,0.115523 c 0.231044,0.173275 0.577614,0.115524 0.808661,-0.115523 0.231049,-0.231052 0.231049,-0.635381 -0.05775,-0.866427 0,0 -0.05775,-0.05769 -0.173288,-0.173282 -0.05776,-0.05773 -0.115523,-0.115523 -0.231042,-0.17328 -0.115523,-0.05774 -0.173285,-0.115535 -0.288806,-0.173296 -0.462095,-0.231049 -1.039707,-0.346566 -1.617319,-0.462095 -0.57764,-0.05775 -1.097471,-0.05775 -1.501808,-0.05775 -0.231049,0 -0.404328,0 -0.519856,0.05775 -0.115512,0 -0.173283,0 -0.173283,0 -0.05775,0 -0.05775,0 -0.115523,0 z m 1.444039,16.924137 c -0.05776,-0.288809 -0.05776,-0.577604 -0.231042,-0.924187 -0.05775,-0.173268 -0.115523,-0.346584 -0.173288,-0.519852 -0.05774,-0.173287 -0.17328,-0.346564 -0.288807,-0.519851 -0.115524,-0.173286 -0.231045,-0.346572 -0.346564,-0.519849 -0.115524,-0.173296 -0.231051,-0.346573 -0.404338,-0.462099 -0.288805,-0.288804 -0.635372,-0.577611 -0.981949,-0.80866 -0.346566,-0.231049 -0.750896,-0.404332 -1.09747,-0.519853 -0.40432,-0.115523 -0.750893,-0.115523 -1.097464,-0.173286 -0.693132,0 -1.328518,0.115523 -1.848362,0.231045 -0.519866,0.115524 -0.981959,0.288805 -1.213008,0.404333 -0.288794,0.173289 -0.462085,0.28881 -0.462085,0.28881 0,0 -0.173293,-0.115524 -0.462089,-0.28881 -0.288814,-0.173288 -0.693141,-0.346571 -1.213006,-0.462092 -0.288795,-0.05775 -0.577604,-0.115523 -0.866411,-0.173286 -0.28882,-0.05773 -0.635381,-0.05773 -0.981952,-0.05773 -0.34657,0.05773 -0.750905,0.05773 -1.097463,0.173288 -0.346574,0.115523 -0.750905,0.346566 -1.097469,0.519851 -0.346577,0.231049 -0.693147,0.519859 -0.981951,0.808663 -0.173283,0.115524 -0.288808,0.288809 -0.404337,0.462089 -0.11552,0.173291 -0.231041,0.288813 -0.346565,0.519859 -0.115528,0.173285 -0.1732816,0.346578 -0.2888013,0.519838 -0.057759,0.173312 -0.1155187,0.346578 -0.1732907,0.519877 -0.1155245,0.288813 -0.1732726,0.635382 -0.2310507,0.924176 -0.057724,0.288811 -0.057724,0.519861 -0.057724,0.750911 0,0.23104 0.057724,0.404324 0.057724,0.577607 0.057754,0.288809 0.1155257,0.462096 0.1155257,0.462096 0,0 0.1155245,-0.115523 0.3465713,-0.346571 0.1155175,-0.115523 0.231046,-0.231043 0.346569,-0.404332 0.173287,-0.115523 0.288816,-0.2888 0.462095,-0.462093 0.173284,-0.115523 0.346563,-0.288807 0.577613,-0.404334 0.115523,-0.05773 0.231044,-0.115523 0.288812,-0.173284 0.115529,-0.05775 0.231041,-0.115523 0.346569,-0.173273 0.231042,-0.115524 0.462091,-0.173295 0.693135,-0.231038 0.231049,-0.05777 0.462102,-0.05777 0.693131,-0.115523 0.231056,0 0.4621,-0.05777 0.693149,-0.05777 0.231046,-0.05768 0.462088,-0.115524 0.693137,-0.231053 0.462094,-0.173271 0.981944,-0.346538 1.386281,-0.519854 0.462089,-0.173267 0.80866,-0.404314 1.09745,-0.519838 0.231055,-0.115524 0.404348,-0.231046 0.404348,-0.28881 0.05774,0 0.173291,0.115524 0.404347,0.231048 0.288787,0.115512 0.635358,0.28881 1.097447,0.462072 0.404337,0.173317 0.86643,0.346583 1.386281,0.577639 0.231051,0.115524 0.462091,0.173268 0.693138,0.231055 0.231049,0.05769 0.462095,0.115523 0.693148,0.115523 0.23103,0 0.462083,0.05768 0.693132,0.115524 0.231043,0.0577 0.462092,0.115511 0.693135,0.173267 0.115523,0.05773 0.23104,0.115524 0.346568,0.17329 0.115523,0.05775 0.231049,0.115523 0.288813,0.173283 0.231052,0.115523 0.404329,0.28881 0.577616,0.404332 0.173275,0.173282 0.34657,0.288809 0.462093,0.462093 0.173286,0.115523 0.231049,0.288804 0.346567,0.404328 0.23105,0.231043 0.34657,0.346565 0.34657,0.346565 0,0 0.05774,-0.173279 0.115524,-0.462089 0,-0.173279 0.05773,-0.346565 0.05773,-0.577615 0,-0.115523 0,-0.346569 -0.05773,-0.635376 z"
     id="path16"
     inkscape:connector-curvature="0"
     style="fill:#68442a;stroke-width:0.57761532" />
</svg>
